<?xml version="1.0" encoding="utf-8"?>
<!-- Generator: Adobe Illustrator 19.2.1, SVG Export Plug-In . SVG Version: 6.00 Build 0)  -->
<svg version="1.1" id="Calque_1" xmlns="http://www.w3.org/2000/svg" xmlns:xlink="http://www.w3.org/1999/xlink" x="0px" y="0px"
	 viewBox="0 0 283.5 283.5" style="enable-background:new 0 0 283.5 283.5;" xml:space="preserve">
<style type="text/css">
	.st0{fill:none;stroke:#A4C3E0;stroke-width:8;stroke-miterlimit:10;}
	.st1{fill:#A3C2DF;}
	.st2{enable-background:new    ;}
	.st3{fill:#FFFFFF;}
</style>
<circle class="st0" cx="142.4" cy="143.4" r="131"/>
<g>
	
		<g id="solid" inkscape:version="0.48.1 r9760" sodipodi:docname="twitter_bootstrap_logo.svg" xmlns:cc="http://creativecommons.org/ns#" xmlns:dc="http://purl.org/dc/elements/1.1/" xmlns:inkscape="http://www.inkscape.org/namespaces/inkscape" xmlns:rdf="http://www.w3.org/1999/02/22-rdf-syntax-ns#" xmlns:sodipodi="http://sodipodi.sourceforge.net/DTD/sodipodi-0.dtd" xmlns:svg="http://www.w3.org/2000/svg">
		<path id="bg" class="st1" d="M171.9,133.8c0,5.3-4.3,9.6-9.6,9.6h-38.5c-5.3,0-9.6-4.3-9.6-9.6V95.4c0-5.3,4.3-9.6,9.6-9.6h38.5
			c5.3,0,9.6,4.3,9.6,9.6V133.8z"/>
		<g id="B" class="st2">
			<path class="st3" d="M130,98.3h16.4c3,0,5.5,0.7,7.2,2.1c1.9,1.4,2.7,3.5,2.7,6.3c0,1.8-0.5,3.2-1.3,4.3c-0.8,1.2-2,2.1-3.5,2.8
				v0.1c2.1,0.5,3.6,1.4,4.7,2.9c1.1,1.5,1.6,3.4,1.6,5.7c0,1.3-0.2,2.6-0.7,3.7c-0.5,1.2-1.2,2.1-2.2,2.9c-1.1,0.8-2.3,1.5-3.9,2
				c-1.5,0.5-3.4,0.7-5.6,0.7H130V98.3L130,98.3z M135.8,112.4h9.7c1.4,0,2.6-0.4,3.5-1.2c0.9-0.8,1.4-2,1.4-3.5
				c0-1.8-0.5-2.9-1.3-3.6s-2.1-1.1-3.6-1.1h-9.6L135.8,112.4C135.9,112.4,135.8,112.4,135.8,112.4z M135.8,127.2h10.4
				c1.8,0,3.2-0.5,4.2-1.4c0.9-0.9,1.5-2.2,1.5-4c0-1.6-0.5-2.9-1.5-3.9c-1.1-0.9-2.3-1.3-4.2-1.3h-10.4V127.2z"/>
		</g>
	</g>
	<g>
		<path class="st1" d="M44.8,187.5v-33.6h12.6c2.6,0,4.6,0.3,6.2,1s2.8,1.7,3.6,3.2c0.9,1.4,1.3,2.9,1.3,4.5c0,1.4-0.4,2.8-1.2,4.1
			c-0.7,1.3-1.9,2.3-3.5,3c2,0.6,3.6,1.6,4.6,3c1.2,1.4,1.6,3.2,1.6,5.1c0,1.6-0.3,3-1,4.3s-1.4,2.5-2.5,3.2c-1,0.7-2.2,1.3-3.6,1.6
			c-1.4,0.4-3.3,0.6-5.4,0.6L44.8,187.5L44.8,187.5z M49.3,168h7.2c2,0,3.3-0.1,4.2-0.4c1.2-0.3,2-0.9,2.6-1.7
			c0.6-0.7,0.9-1.7,0.9-2.9s-0.3-2-0.9-2.9c-0.6-0.9-1.3-1.4-2.3-1.7s-2.8-0.4-5.1-0.4h-6.7C49.3,157.9,49.3,168,49.3,168z
			 M49.3,183.5h8.4c1.4,0,2.5,0,3-0.1c1-0.1,1.9-0.4,2.6-0.9c0.7-0.4,1.3-1,1.7-1.9c0.4-0.9,0.7-1.7,0.7-2.9c0-1.3-0.3-2.3-1-3.3
			c-0.6-0.9-1.6-1.6-2.6-1.9c-1.2-0.4-2.8-0.6-4.9-0.6h-7.8L49.3,183.5L49.3,183.5L49.3,183.5z"/>
		<path class="st1" d="M74.3,175.3c0-4.5,1.3-7.8,3.8-10c2-1.7,4.6-2.8,7.7-2.8c3.3,0,6.1,1.2,8.3,3.3s3.2,5.2,3.2,9.1
			c0,3.2-0.4,5.7-1.4,7.4c-0.9,1.7-2.3,3.2-4.1,4.2s-3.8,1.4-5.9,1.4c-3.3,0-6.1-1.2-8.3-3.3C75.3,182.5,74.3,179.3,74.3,175.3z
			 M78.5,175.3c0,3,0.7,5.5,2,7c1.3,1.6,3,2.3,5.1,2.3c2,0,3.8-0.7,5.1-2.3c1.3-1.6,2-3.9,2-7.1c0-3-0.7-5.2-2-6.8s-3-2.3-5.1-2.3
			c-2,0-3.8,0.7-5.1,2.3C79.2,169.8,78.5,172.2,78.5,175.3z"/>
		<path class="st1" d="M100.3,175.3c0-4.5,1.3-7.8,3.8-10c2-1.7,4.6-2.8,7.7-2.8c3.3,0,6.1,1.2,8.3,3.3s3.2,5.2,3.2,9.1
			c0,3.2-0.4,5.7-1.4,7.4c-0.9,1.7-2.3,3.2-4.1,4.2s-3.8,1.4-5.9,1.4c-3.3,0-6.1-1.2-8.3-3.3C101.3,182.5,100.3,179.3,100.3,175.3z
			 M104.5,175.3c0,3,0.7,5.5,2,7c1.3,1.6,3,2.3,5.1,2.3s3.8-0.7,5.1-2.3c1.3-1.6,2-3.9,2-7.1c0-3-0.7-5.2-2-6.8s-3-2.3-5.1-2.3
			s-3.8,0.7-5.1,2.3C105.3,169.8,104.5,172.2,104.5,175.3z"/>
		<path class="st1" d="M137,183.7l0.6,3.6c-1.2,0.3-2.2,0.4-3,0.4c-1.4,0-2.6-0.3-3.5-0.7s-1.4-1.2-1.7-1.9s-0.4-2.5-0.4-4.9v-14.1
			h-3V163h3v-6.1l4.1-2.5v8.5h4.2v3.2h-4.2v14.2c0,1.2,0,1.9,0.3,2.3c0.1,0.3,0.4,0.6,0.7,0.9c0.3,0.1,0.9,0.3,1.4,0.3
			C135.5,184,136.1,183.8,137,183.7z"/>
		<path class="st1" d="M139.3,180.2l4.1-0.6c0.3,1.6,0.9,2.9,1.9,3.8s2.5,1.3,4.3,1.3c1.9,0,3.3-0.4,4.2-1.2
			c0.9-0.7,1.3-1.7,1.3-2.8c0-0.9-0.4-1.6-1.2-2.2c-0.6-0.4-2-0.9-4.2-1.4c-3-0.7-5.1-1.4-6.2-2s-2-1.3-2.6-2.3s-0.9-2-0.9-3.3
			c0-1,0.3-2,0.7-3c0.4-0.9,1.2-1.7,2-2.3c0.6-0.4,1.4-0.9,2.6-1.2s2.3-0.4,3.6-0.4c1.9,0,3.6,0.3,5.1,0.9c1.4,0.6,2.5,1.3,3.2,2.2
			s1.2,2.2,1.4,3.8l-4.1,0.6c-0.1-1.3-0.7-2.2-1.6-2.9s-2.2-1-3.8-1c-1.9,0-3.2,0.3-4.1,0.9c-0.9,0.6-1.2,1.3-1.2,2.2
			c0,0.6,0.1,1,0.4,1.4c0.3,0.4,0.9,0.9,1.6,1.2c0.4,0.1,1.6,0.4,3.6,1c2.9,0.7,4.9,1.4,6.1,1.9c1.2,0.4,2,1.2,2.8,2.2
			c0.7,1,1,2.2,1,3.5s-0.4,2.6-1.2,3.9c-0.9,1.2-2,2.2-3.5,2.8c-1.4,0.7-3.2,1-5.1,1c-3.2,0-5.5-0.7-7.2-2
			C140.8,184.7,139.7,182.8,139.3,180.2z"/>
		<path class="st1" d="M173.4,183.7l0.6,3.6c-1.2,0.3-2.2,0.4-3,0.4c-1.4,0-2.6-0.3-3.5-0.7s-1.4-1.2-1.7-1.9s-0.4-2.5-0.4-4.9
			v-14.1h-3V163h3v-6.1l4.1-2.5v8.5h4.2v3.2h-4.2v14.2c0,1.2,0,1.9,0.3,2.3c0.1,0.3,0.4,0.6,0.7,0.9c0.3,0.1,0.9,0.3,1.4,0.3
			C172.1,184,172.6,183.8,173.4,183.7z"/>
		<path class="st1" d="M177.4,187.5v-24.3h3.8v3.6c1-1.7,1.9-2.9,2.6-3.5c0.9-0.6,1.7-0.9,2.6-0.9c1.4,0,2.8,0.4,4.2,1.3l-1.4,3.8
			c-1-0.6-2-0.9-3-0.9c-0.9,0-1.7,0.3-2.5,0.9c-0.7,0.6-1.2,1.3-1.6,2.3c-0.4,1.4-0.7,3-0.7,4.8v12.8h-3.9v0.1H177.4z"/>
		<path class="st1" d="M208.9,184.4c-1.6,1.3-3,2.2-4.3,2.8c-1.4,0.6-2.9,0.9-4.5,0.9c-2.6,0-4.8-0.7-6.1-2c-1.4-1.3-2.2-3-2.2-5.1
			c0-1.2,0.3-2.3,0.9-3.3c0.6-1,1.3-1.7,2.2-2.3s1.9-1,2.9-1.3c0.9-0.1,2-0.4,3.6-0.6c3.3-0.4,5.8-0.9,7.4-1.4c0-0.6,0-0.9,0-1
			c0-1.7-0.4-2.9-1.2-3.5c-1-0.9-2.6-1.4-4.6-1.4c-1.9,0-3.3,0.3-4.3,1c-0.9,0.7-1.6,1.9-2,3.6l-4.1-0.6c0.4-1.7,1-3.2,1.7-4.2
			c0.9-1,2-1.9,3.6-2.5s3.5-0.9,5.5-0.9s3.8,0.3,5.1,0.7s2.3,1.2,2.9,1.9c0.6,0.7,1,1.7,1.3,2.8c0.1,0.7,0.1,2,0.1,3.8v5.5
			c0,3.8,0.1,6.2,0.3,7.2c0.1,1,0.6,2,1,2.9h-4.3C209.3,186.6,209,185.6,208.9,184.4z M208.6,175.3c-1.4,0.6-3.8,1.2-6.7,1.6
			c-1.7,0.3-2.9,0.6-3.6,0.9c-0.7,0.3-1.3,0.7-1.6,1.3c-0.4,0.6-0.6,1.3-0.6,2c0,1.2,0.4,2,1.3,2.8c0.9,0.7,2,1.2,3.6,1.2
			s3-0.3,4.2-1c1.3-0.7,2.2-1.6,2.8-2.9c0.4-0.9,0.7-2.3,0.7-4.1v-1.7h-0.1V175.3z"/>
		<path class="st1" d="M219.1,196.7v-33.6h3.8v3.2c0.9-1.3,1.9-2.2,3-2.8c1.2-0.6,2.5-0.9,4.1-0.9c2,0,3.9,0.6,5.5,1.6
			s2.8,2.6,3.6,4.5c0.9,1.9,1.2,4.1,1.2,6.4c0,2.5-0.4,4.8-1.3,6.7c-0.9,2-2.2,3.5-3.9,4.6c-1.7,1-3.5,1.6-5.4,1.6
			c-1.3,0-2.6-0.3-3.8-0.9c-1.2-0.6-2-1.3-2.8-2.2v11.9H219L219.1,196.7L219.1,196.7z M222.8,175.4c0,3.2,0.6,5.5,1.9,7
			c1.3,1.4,2.8,2.2,4.6,2.2c1.9,0,3.3-0.7,4.6-2.3s2-3.9,2-7.2c0-3-0.6-5.4-1.9-7c-1.3-1.6-2.8-2.3-4.6-2.3c-1.7,0-3.3,0.9-4.6,2.5
			S222.8,172.2,222.8,175.4z"/>
	</g>
</g>
</svg>
