<?xml version="1.0" encoding="utf-8"?>
<!-- Generator: Adobe Illustrator 19.2.1, SVG Export Plug-In . SVG Version: 6.00 Build 0)  -->
<svg version="1.1" id="Calque_1" xmlns="http://www.w3.org/2000/svg" xmlns:xlink="http://www.w3.org/1999/xlink" x="0px" y="0px"
	 viewBox="0 0 283.5 283.5" style="enable-background:new 0 0 283.5 283.5;" xml:space="preserve">
<style type="text/css">
	.st0{fill:none;stroke:#A4C3E0;stroke-width:8;stroke-miterlimit:10;}
	.st1{fill:#A3C2DF;}
	.st2{fill:#FFFFFF;}
	.st3{opacity:5.000000e-002;}
</style>
<circle class="st0" cx="142.4" cy="143.4" r="131"/>
<g>
	<g>
		<polygon class="st1" points="183,200.4 143.2,211.1 103.4,200.4 94.2,100.9 192.2,100.9 		"/>
		<polygon class="st1" points="143.2,109 143.2,202.6 143.3,202.6 175.5,193.9 182.9,109 		"/>
		<g>
			<polygon class="st1" points="120.6,86.3 120.6,80.4 129.3,80.4 129.3,73.9 114.2,73.9 114.2,92.2 129.3,92.2 129.3,86.3 			"/>
			<path class="st1" d="M144.8,80.4h6v-6.5h-15.1c0,0,0,3.3,0,6.5c2,2,3.1,3,6,5.9c-1.7,0-6,0-6,0v5.9h15.1v-5.9L144.8,80.4z"/>
			<path class="st1" d="M166.2,80.4h6v-6.5h-15.1c0,0,0,3.3,0,6.5c2,2,3.1,3,6,5.9c-1.7,0-6,0-6,0v5.9h15.1v-5.9L166.2,80.4z"/>
		</g>
		<g>
			<polygon class="st2" points="143.2,133.9 114.7,145.7 115.6,157.5 143.2,145.7 172.5,133.2 173.7,121.2 			"/>
			<polygon class="st2" points="114.7,145.7 115.6,157.5 143.2,145.7 143.2,133.9 			"/>
			<polygon class="st2" points="173.7,121.2 143.2,133.9 143.2,145.7 172.5,133.2 			"/>
			<polygon class="st2" points="114.7,145.7 115.7,157.5 157.9,157.6 157,173.3 143.1,177.2 129.7,173.8 128.9,164.1 116.5,164.1 
				118.1,182.8 143.2,190.3 168.2,183 171.4,145.7 			"/>
			<g class="st3">
				<polygon class="st2" points="143.2,145.7 114.7,145.7 115.6,157.5 143.2,157.6 				"/>
				<polygon points="143.2,177.1 143.1,177.2 129.7,173.8 128.9,164.1 116.5,164.1 118.1,182.8 143.2,190.3 				"/>
			</g>
			<polygon class="st2" points="112.1,121.2 173.7,121.2 172.5,133.2 113.6,133.2 			"/>
			<polygon class="st3" points="143.2,121.2 112.1,121.2 113.6,133.2 143.2,133.2 			"/>
		</g>
	</g>
</g>
</svg>
