<?xml version="1.0" encoding="utf-8"?>
<!-- Generator: Adobe Illustrator 19.2.1, SVG Export Plug-In . SVG Version: 6.00 Build 0)  -->
<svg version="1.1" id="Calque_1" xmlns="http://www.w3.org/2000/svg" xmlns:xlink="http://www.w3.org/1999/xlink" x="0px" y="0px"
	 viewBox="0 0 283.5 283.5" style="enable-background:new 0 0 283.5 283.5;" xml:space="preserve">
<style type="text/css">
	.st0{fill:none;stroke:#A4C3E0;stroke-width:8;stroke-miterlimit:10;}
	.st1{fill:#A3C2DF;}
</style>
<circle class="st0" cx="142.4" cy="143.4" r="131"/>
<g>
	<path class="st1" d="M159.6,137.1c-3.9,0-6.8,1.9-6.8,6.5c0,3.5,1.9,5.9,6.6,5.9c3.9,0,6.6-2.3,6.6-6
		C166.1,139.3,163.7,137.1,159.6,137.1L159.6,137.1L159.6,137.1z M151.9,169.5c-0.9,1.1-1.8,2.3-1.8,3.7c0,2.8,3.6,3.7,8.5,3.7
		c4.1,0,9.7-0.3,9.7-4.1c0-2.3-2.7-2.4-6.1-2.6L151.9,169.5L151.9,169.5z M172.8,137.3c1.3,1.6,2.6,3.9,2.6,7.1
		c0,7.8-6.1,12.4-15,12.4c-2.3,0-4.3-0.3-5.6-0.6l-2.3,3.7l6.9,0.4c12.2,0.8,19.4,1.1,19.4,10.5c0,8.1-7.1,12.7-19.4,12.7
		c-12.8,0-17.6-3.2-17.6-8.8c0-3.2,1.4-4.9,3.9-7.2c-2.3-1-3.1-2.7-3.1-4.7c0-1.6,0.8-3,2-4.3c1.3-1.3,2.7-2.7,4.4-4.2
		c-3.5-1.7-6.1-5.4-6.1-10.6c0-8.1,5.4-13.7,16.2-13.7c3,0,4.9,0.3,6.5,0.7h13.8v6L172.8,137.3L172.8,137.3z"/>
	<path class="st1" d="M191.7,124.5c-4,0-6.4-2.3-6.4-6.4c0-4,2.3-6.2,6.4-6.2c4.1,0,6.4,2.2,6.4,6.2
		C198.1,122.2,195.8,124.5,191.7,124.5L191.7,124.5L191.7,124.5z M182.6,166.9v-5.6l3.6-0.5c1-0.1,1.1-0.4,1.1-1.4v-20.7
		c0-0.8-0.2-1.3-0.9-1.5l-3.8-1.3l0.8-5.7H198v29.3c0,1.1,0.1,1.3,1.1,1.4l3.6,0.5v5.6H182.6L182.6,166.9z"/>
	<path class="st1" d="M230.6,164.2c-3,1.5-7.5,2.8-11.5,2.8c-8.4,0-11.6-3.4-11.6-11.4v-18.5c0-0.4,0-0.7-0.6-0.7H202v-6.3
		c6.2-0.7,8.7-3.8,9.5-11.5h6.7v10c0,0.5,0,0.7,0.6,0.7h9.9v7.1h-10.5v16.9c0,4.2,1,5.8,4.8,5.8c2,0,4-0.5,5.7-1.1L230.6,164.2"/>
	<path class="st1" d="M126,145.7l-32.3-32.3c-1.9-1.9-4.9-1.9-6.7,0l-6.7,6.7l8.5,8.5c2-0.7,4.2-0.2,5.8,1.4c1.6,1.6,2,3.9,1.3,5.8
		l8.2,8.2c2-0.7,4.3-0.2,5.9,1.3c2.2,2.2,2.2,5.8,0,8c-2.2,2.2-5.8,2.2-8,0c-1.7-1.7-2.1-4.1-1.2-6.2l-7.6-7.6l0,20.1
		c0.5,0.3,1,0.6,1.5,1.1c2.2,2.2,2.2,5.8,0,8c-2.2,2.2-5.8,2.2-8,0c-2.2-2.2-2.2-5.8,0-8c0.5-0.5,1.2-1,1.9-1.2v-20.3
		c-0.7-0.3-1.3-0.7-1.9-1.2c-1.7-1.7-2.1-4.1-1.2-6.2l-8.4-8.4l-22.1,22.1c-1.9,1.9-1.9,4.9,0,6.7l32.3,32.3c1.9,1.9,4.9,1.9,6.7,0
		l32.1-32.1C127.9,150.5,127.9,147.5,126,145.7"/>
</g>
</svg>
