<?xml version="1.0" encoding="utf-8"?>
<!-- Generator: Adobe Illustrator 19.2.1, SVG Export Plug-In . SVG Version: 6.00 Build 0)  -->
<svg version="1.1" id="Calque_1" xmlns="http://www.w3.org/2000/svg" xmlns:xlink="http://www.w3.org/1999/xlink" x="0px" y="0px"
	 viewBox="0 0 283.5 283.5" style="enable-background:new 0 0 283.5 283.5;" xml:space="preserve">
<style type="text/css">
	.st0{fill:none;stroke:#A4C3E0;stroke-width:8;stroke-miterlimit:10;}
	.st1{fill:#A3C2DF;}
	.st2{fill:#FFFFFF;}
</style>
<circle class="st0" cx="142.4" cy="143.4" r="131"/>
<g>
	<g>
		<g>
			<path class="st1" d="M103.5,74.9h6.2V81h5.6v-6.1h6.2v18.4h-6.2v-6.2h-5.6v6.2h-6.2L103.5,74.9L103.5,74.9z"/>
			<path class="st1" d="M129.5,81h-5.4v-6.1h17V81h-5.4v12.3h-6.2L129.5,81L129.5,81z"/>
			<path class="st1" d="M143.8,74.9h6.4l3.9,6.5l3.9-6.5h6.4v18.4h-6.1v-9.1l-4.2,6.5H154l-4.2-6.5v9.1h-6V74.9z"/>
			<path class="st1" d="M167.6,74.9h6.2v12.3h8.6v6.1h-14.8V74.9z"/>
		</g>
	</g>
</g>
<g id="Guides_to_delete">
	<g>
		<polygon class="st1" points="103.2,200.4 94.3,101.4 191.3,101.4 182.4,200.4 142.8,211.4 		"/>
		<polygon class="st1" points="142.8,109.5 142.8,203 174.9,194.1 182.4,109.5 		"/>
		<polygon class="st2" points="112.4,121.6 115.7,158.4 157.8,158.4 156.3,174.1 142.8,177.8 129.3,174.1 128.4,164 116.2,164 
			117.9,183.5 142.8,190.4 167.7,183.5 171,146.2 126.8,146.2 125.7,133.8 172.1,133.8 172.1,133.8 173.2,121.6 		"/>
		<g>
			<polygon class="st2" points="142.8,121.6 112.4,121.6 115.7,158.4 142.8,158.4 142.8,146.2 126.8,146.2 125.7,133.8 142.8,133.8 
							"/>
			<polygon class="st2" points="142.8,177.8 142.8,177.8 129.3,174.1 128.4,164 116.2,164 117.9,183.5 142.8,190.4 142.8,190.4 			
				"/>
		</g>
	</g>
</g>
</svg>
