<?xml version="1.0" encoding="utf-8"?>
<!-- Generator: Adobe Illustrator 19.2.1, SVG Export Plug-In . SVG Version: 6.00 Build 0)  -->
<svg version="1.1" id="Calque_1" xmlns="http://www.w3.org/2000/svg" xmlns:xlink="http://www.w3.org/1999/xlink" x="0px" y="0px"
	 viewBox="0 0 283.5 283.5" style="enable-background:new 0 0 283.5 283.5;" xml:space="preserve">
<style type="text/css">
	.st0{fill:none;stroke:#A4C3E0;stroke-width:8;stroke-miterlimit:10;}
	.st1{fill:#A3C2DF;}
	.st2{fill:#FFFFFF;}
</style>
<circle class="st0" cx="142.4" cy="143.4" r="131"/>
<g>
	<polygon class="st1" points="190.8,101.6 142.4,101.6 142.4,101.6 93.9,101.6 103,200.1 142.4,211.2 142.4,211.2 142.4,211.2 
		142.4,211.2 142.4,211.2 181.7,200.1 	"/>
	<polygon class="st1" points="142.4,109.6 142.4,202.9 142.4,202.9 174.3,193.9 182,109.6 	"/>
	<polygon class="st2" points="167.7,121.7 118.7,121.7 115.3,158.6 115.4,158.3 157,158.3 155.7,173.9 142.4,177.8 128.9,173.9 
		128.1,164.4 115.8,164.4 117.6,183.3 142.4,190.3 167.2,183.3 170.6,146.3 126.4,146.3 126.9,133.9 157.6,133.9 158.1,141 
		170.4,141 	"/>
	<g>
		<path class="st2" d="M142.4,121.7h-23.7l-3.4,36.9l0.1-0.2h27v-12.1h-14.3l0.6-12.3h13.7V121.7z M128.1,164.4h-12.2l1.7,18.9
			l24.8,7v-12.6l-13.5-3.9L128.1,164.4z"/>
	</g>
	<g>
		<polygon class="st1" points="132.9,87 124.3,87 124.3,93.2 132.9,93.2 137.6,93.2 139.1,93.2 139.1,74.8 132.9,74.8 		"/>
		<path class="st1" d="M160.4,74.9h-15c0,0,0,3.2,0,6.4c2,2,3.1,3,6,5.9c-1.7,0-6,0-6,0v5.9h15v-5.9l-6-5.9h6V74.9z"/>
	</g>
</g>
</svg>
