<?xml version="1.0" encoding="utf-8"?>
<!-- Generator: Adobe Illustrator 19.2.1, SVG Export Plug-In . SVG Version: 6.00 Build 0)  -->
<svg version="1.1" id="Calque_1" xmlns="http://www.w3.org/2000/svg" xmlns:xlink="http://www.w3.org/1999/xlink" x="0px" y="0px"
	 viewBox="0 0 283.5 283.5" style="enable-background:new 0 0 283.5 283.5;" xml:space="preserve">
<style type="text/css">
	.st0{fill:none;stroke:#A4C3E0;stroke-width:8;stroke-miterlimit:10;}
	.st1{fill:#A3C2DF;}
</style>
<circle class="st0" cx="142.4" cy="143.4" r="131"/>
<path class="st1" d="M100.9,187h-7.2c-0.3-12.2-1-23.6-2.1-34.3h-0.1l-11,34.3H75l-10.9-34.3h-0.1c-0.8,10.3-1.3,21.7-1.5,34.3H56
	c0.4-15.3,1.5-29.7,3.2-43.1h8.9l10.4,31.7h0.1L89,143.9h8.6C99.4,159.6,100.6,173.9,100.9,187 M132.2,155.2
	c-2.9,15.9-6.8,27.5-11.6,34.7c-3.7,5.6-7.9,8.3-12.3,8.3c-1.2,0-2.7-0.4-4.4-1.1v-3.8c0.9,0.1,1.9,0.2,3,0.2c2.1,0,3.8-0.6,5-1.7
	c1.5-1.4,2.3-3,2.3-4.7c0-1.2-0.6-3.6-1.8-7.3l-7.9-24.6h7.1l5.7,18.4c1.3,4.2,1.8,7.1,1.6,8.7c3.1-8.3,5.3-17.3,6.5-27.1
	L132.2,155.2L132.2,155.2L132.2,155.2z"/>
<path class="st1" d="M228.2,187h-20.5v-43.1h6.9v37.8h13.6V187z M202.3,188l-7.9-3.9c0.7-0.6,1.4-1.2,2-1.9c3.4-4,5-9.8,5-17.6
	c0-14.3-5.6-21.4-16.8-21.4c-5.5,0-9.8,1.8-12.8,5.4c-3.4,4-5,9.8-5,17.5c0,7.6,1.5,13.1,4.5,16.7c2.7,3.2,6.8,4.8,12.3,4.8
	c2,0,3.9-0.3,5.6-0.8l10.3,6L202.3,188z M176.7,178.3c-1.7-2.8-2.6-7.3-2.6-13.5c0-10.8,3.3-16.3,9.9-16.3c3.4,0,6,1.3,7.6,3.9
	c1.7,2.8,2.6,7.3,2.6,13.4c0,10.9-3.3,16.4-9.9,16.4C180.8,182.2,178.3,180.9,176.7,178.3 M163.8,175c0,3.7-1.3,6.7-4,9
	c-2.7,2.3-6.3,3.5-10.8,3.5c-4.2,0-8.3-1.3-12.3-4l1.9-3.7c3.4,1.7,6.5,2.6,9.3,2.6c2.6,0,4.6-0.6,6.1-1.7c1.5-1.1,2.3-2.8,2.3-4.8
	c0-2.6-1.8-4.7-5.1-6.6c-3-1.7-9.1-5.1-9.1-5.1c-3.3-2.4-4.9-4.9-4.9-9.2c0-3.5,1.2-6.3,3.7-8.5c2.4-2.2,5.6-3.2,9.5-3.2
	c4,0,7.6,1.1,10.9,3.2l-1.7,3.7c-2.8-1.2-5.6-1.8-8.3-1.8c-2.2,0-3.9,0.5-5.1,1.6c-1.2,1.1-1.9,2.4-1.9,4.1c0,2.5,1.8,4.8,5.2,6.6
	c3.1,1.7,9.3,5.2,9.3,5.2C162.1,168.3,163.8,170.8,163.8,175"/>
<path class="st1" d="M236.8,129.4c-4.2-0.1-7.4,0.3-10.1,1.5c-0.8,0.3-2,0.3-2.1,1.3c0.4,0.4,0.5,1.1,0.8,1.7c0.6,1,1.7,2.4,2.7,3.2
	c1.1,0.8,2.2,1.7,3.3,2.4c2,1.3,4.3,2,6.3,3.2c1.1,0.7,2.3,1.7,3.4,2.4c0.6,0.4,0.9,1.1,1.7,1.4v-0.2c-0.4-0.5-0.5-1.1-0.8-1.7
	l-1.6-1.5c-1.5-2-3.4-3.8-5.4-5.3c-1.7-1.1-5.3-2.7-6-4.6l-0.1-0.1c1.1-0.1,2.5-0.5,3.6-0.8c1.8-0.5,3.4-0.4,5.2-0.8
	c0.8-0.2,1.7-0.5,2.5-0.7v-0.5c-0.9-0.9-1.6-2.2-2.6-3.1c-2.7-2.3-5.6-4.5-8.6-6.4c-1.6-1-3.7-1.7-5.4-2.6c-0.6-0.3-1.7-0.5-2-1
	c-0.9-1.1-1.5-2.7-2.1-4c-1.5-2.9-3-6-4.3-9.1c-0.9-2-1.5-4.1-2.7-5.9c-5.4-8.8-11.2-14.2-20.1-19.5c-1.9-1.1-4.2-1.6-6.7-2.1
	l-3.9-0.2c-0.8-0.4-1.7-1.4-2.4-1.8c-3-1.9-10.6-5.9-12.8-0.6c-1.4,3.4,2.1,6.7,3.3,8.4c0.9,1.2,2,2.6,2.7,3.9
	c0.4,0.9,0.5,1.8,0.8,2.8c0.8,2.3,1.6,4.8,2.7,7c0.6,1.1,1.2,2.2,1.9,3.2c0.4,0.6,1.1,0.8,1.3,1.8c-0.7,1-0.8,2.6-1.2,3.9
	c-1.9,5.9-1.1,13.2,1.5,17.5c0.8,1.3,2.8,4.2,5.5,3.1c2.3-0.9,1.8-3.9,2.5-6.5c0.2-0.6,0.1-1,0.4-1.5v0.1c0.7,1.5,1.5,2.9,2.1,4.3
	c1.6,2.5,4.4,5.2,6.8,7c1.2,0.9,2.2,2.6,3.8,3.1v-0.2h-0.1c-0.3-0.5-0.8-0.7-1.2-1c-0.9-0.9-2-2.1-2.7-3.1c-2.2-2.9-4.1-6.1-5.8-9.5
	c-0.8-1.6-1.6-3.4-2.2-5c-0.3-0.6-0.3-1.6-0.8-1.9c-0.8,1.1-1.9,2.1-2.5,3.5c-1,2.2-1.1,5-1.5,7.9l-0.2,0.1
	c-1.7-0.4-2.2-2.1-2.9-3.6c-1.6-3.7-1.8-9.6-0.5-13.9c0.4-1.1,1.9-4.5,1.3-5.6c-0.3-1-1.4-1.6-1.9-2.3c-0.7-1-1.4-2.2-1.9-3.3
	c-1.2-2.9-1.9-6.1-3.2-9.1c-0.6-1.4-1.7-2.8-2.6-4c-1-1.4-2.1-2.4-2.9-4.1c-0.3-0.6-0.6-1.5-0.2-2.1c0.1-0.4,0.3-0.6,0.7-0.7
	c0.7-0.6,2.6,0.2,3.3,0.5c1.9,0.8,3.5,1.5,5.2,2.6c0.7,0.5,1.5,1.5,2.4,1.8h1.1c1.7,0.4,3.5,0.1,5.1,0.6c2.8,0.9,5.3,2.2,7.5,3.6
	c6.8,4.3,12.4,10.5,16.2,17.8c0.6,1.2,0.9,2.3,1.5,3.5c1.1,2.6,2.5,5.2,3.5,7.7c1.1,2.4,2.1,4.9,3.7,7c0.8,1.1,3.9,1.7,5.3,2.2
	c1,0.5,2.7,0.9,3.6,1.5c1.8,1.1,3.5,2.3,5.2,3.5C234.1,127.1,236.7,128.4,236.8,129.4 M183.7,84.2c-0.7,0-1.4,0.1-2.1,0.3v0.1h0.1
	c0.4,0.8,1.1,1.4,1.7,2.1c0.4,0.8,0.8,1.7,1.2,2.5l0.1-0.1c0.7-0.5,1.1-1.4,1.1-2.6c-0.3-0.4-0.4-0.7-0.6-1.1
	C184.8,84.9,184.1,84.6,183.7,84.2"/>
<path class="st1" d="M241.8,186.9h1.1v-5.3h-1.6l-1.3,3.6l-1.4-3.6h-1.6v5.3h1v-4h0.1l1.5,4h0.8l1.5-4L241.8,186.9L241.8,186.9z
	 M233.1,186.9h1.1v-4.4h1.5v-0.9h-4.2v0.9h1.6L233.1,186.9L233.1,186.9z"/>
</svg>
