<?xml version="1.0" encoding="utf-8"?>
<!-- Generator: Adobe Illustrator 19.2.1, SVG Export Plug-In . SVG Version: 6.00 Build 0)  -->
<svg version="1.1" id="Calque_1" xmlns="http://www.w3.org/2000/svg" xmlns:xlink="http://www.w3.org/1999/xlink" x="0px" y="0px"
	 viewBox="0 0 283.5 283.5" style="enable-background:new 0 0 283.5 283.5;" xml:space="preserve">
<style type="text/css">
	.st0{fill:none;stroke:#A4C3E0;stroke-width:8;stroke-miterlimit:10;}
	.st1{fill:#A4C3E0;}
	.st2{fill:#525353;}
	.st3{fill:#AA9678;}
	.st4{fill:#C0B098;}
	.st5{fill:#786453;}
	.st6{fill:#8B7460;}
	.st7{fill:none;}
	.st8{fill:#FFFFFF;}
	.st9{fill:#BBBCBD;}
	.st10{fill:#676A6A;}
	.st11{fill:#909393;}
	.st12{fill:#E2DDDB;}
	.st13{fill:#FBB040;}
	.st14{fill:#9F2255;}
	.st15{fill:#E2066F;}
</style>
<circle class="st0" cx="142.4" cy="143.4" r="131"/>
<g id="Calque_2">
	<g id="XMLID_192_">
		<g id="XMLID_323_">
			<path id="XMLID_341_" class="st1" d="M83.9,173.2c0-0.1,0-0.4,0-0.8c0-2,0.6-3.7,2-4.8c1.4-1.1,2.9-1.8,4.6-1.8
				c2.2,0,3.7,0.8,4.6,2.4L83.9,173.2z M99.7,170.3c0-2.4-0.9-4.4-2.8-5.8c-1.8-1.5-4.1-2.3-6.7-2.3c-1.8,0-3.3,0.4-4.9,1.1
				c-1.5,0.8-2.8,1.9-3.9,3.5c-1,1.6-1.5,3.4-1.5,5.6c0,3,1,5.6,3,7.3c2,1.9,4.4,2.8,7.2,2.8c3.2,0,6-1.3,8.4-3.7l-2.4-2.8
				c-1.4,1.8-3.3,2.7-5.4,2.7s-4.1-0.8-5.3-2.4L99.7,170.3L99.7,170.3z"/>
			<path id="XMLID_189_" class="st1" d="M75,163.4c-1.1,0.8-2,1.8-2.8,3v-4.1h-4.2v19.9h4.2v-8.5c0-2.3,0.5-4.1,1.5-5.4
				c1-1.4,2.7-2,4.7-2h0.3v-4.2C77.4,162.2,76.3,162.7,75,163.4"/>
			<path id="XMLID_188_" class="st1" d="M114.7,172.2c-0.6-0.5-1.3-0.8-1.9-1c-0.6-0.3-1.1-0.5-1.8-0.6c-0.6-0.3-1.4-0.4-2.2-0.6
				c-0.8-0.3-1.4-0.4-1.9-0.6c-0.6-0.3-1-0.8-1-1.4c0-0.8,0.3-1.3,0.9-1.6c0.6-0.4,1.4-0.5,2.4-0.5c1.9,0,3.7,0.5,5.3,1.6l1.5-3
				c-2-1.4-4.2-2-6.5-2s-4.2,0.5-5.6,1.6c-1.4,1.1-2.2,2.5-2.2,4.4c0,2.7,2,4.4,6.2,5.6c0.1,0,0.3,0.1,0.5,0.1
				c2.7,0.8,3.9,1.6,3.9,2.7c0,0.6-0.3,1.3-0.8,1.6c-0.5,0.4-1.3,0.6-2.3,0.6c-2.2,0-4.4-0.9-6.7-2.7l-2,3.3
				c1.1,0.9,2.5,1.6,4.2,2.2c1.5,0.5,3,0.8,4.6,0.8c2.2,0,3.9-0.5,5.3-1.6c1.4-1.1,2-2.7,2-4.6C116.7,174.6,116.1,173.2,114.7,172.2
				"/>
			<path id="XMLID_336_" class="st1" d="M59.3,169.3c-0.9,0.9-2.5,1.4-4.9,1.4h-5.1v-10.5h4.4c2.4,0,4.2,0.4,5.3,1.1
				c1.1,0.8,1.6,2,1.6,3.8C60.7,167,60.2,168.4,59.3,169.3 M62.5,158.5c-1.8-1.5-4.7-2.3-8.6-2.3h-9v26.1h4.4v-7.6H54
				c3.8,0,6.7-0.8,8.5-2.2c1.9-1.5,2.8-3.8,2.8-7C65.2,162.4,64.3,160,62.5,158.5"/>
			<path id="XMLID_185_" class="st1" d="M126.5,179c-0.9,0-1.6-0.3-2.2-0.9c-0.5-0.5-0.8-1.3-0.8-2.3v-10.1h5.2v-3.4h-5.2v-6.2h-4.2
				v19.6c0,2.2,0.6,3.8,1.9,4.9c1.3,1.3,2.8,1.9,4.6,1.9c1.8,0,3.4-0.6,4.8-2l-1.8-2.9C128.2,178.6,127.3,179,126.5,179"/>
			<path id="XMLID_332_" class="st1" d="M145.7,177.1c-1.1,1.3-2.5,1.8-4.2,1.8c-1.6,0-3-0.6-4.3-1.8s-1.8-2.8-1.8-4.7
				s0.6-3.5,1.8-4.8s2.7-1.9,4.3-1.9c1.6,0,3,0.6,4.2,1.9c1.1,1.3,1.8,2.9,1.8,4.7C147.3,174.3,146.8,176,145.7,177.1 M147.3,166
				c-1.6-2.5-3.8-3.7-6.5-3.7s-4.9,0.9-6.8,2.8s-2.9,4.3-2.9,7.3c0,3,0.9,5.6,2.8,7.5c1.9,1.9,4.1,2.8,6.6,2.8
				c1.3,0,2.5-0.3,3.7-0.9c1.3-0.6,2.3-1.5,3-2.7v3.3h4.2v-19.9h-4.2L147.3,166L147.3,166z"/>
			<path id="XMLID_329_" class="st1" d="M213.5,177.1c-1.1,1.3-2.7,1.8-4.6,1.8c-1.8,0-3.3-0.6-4.6-1.8c-1.1-1.3-1.8-2.8-1.8-4.7
				s0.6-3.4,1.8-4.7c1.1-1.3,2.7-1.8,4.6-1.8c1.8,0,3.3,0.6,4.6,1.8c1.1,1.3,1.8,2.8,1.8,4.7S214.6,175.8,213.5,177.1 M209,162.2
				c-3,0-5.4,1-7.5,2.9c-2,2-3,4.4-3,7.2c0,2.9,1,5.3,3,7.2c2,2,4.4,2.9,7.5,2.9s5.4-1,7.5-2.9c2-2,3-4.4,3-7.2c0-2.9-1-5.3-3-7.2
				C214.5,163.2,211.9,162.2,209,162.2"/>
			<path id="XMLID_326_" class="st1" d="M236.2,177.1c-1.3,1.1-2.7,1.8-4.3,1.8c-1.6,0-3-0.6-4.2-1.8c-1.1-1.3-1.8-2.8-1.8-4.7
				s0.6-3.4,1.8-4.7c1.1-1.3,2.5-1.9,4.2-1.9c1.6,0,3,0.6,4.3,1.9c1.1,1.3,1.8,2.8,1.8,4.7S237.4,176,236.2,177.1 M239.4,165
				c-1.9-1.9-4.2-2.8-6.8-2.8c-2.7,0-4.8,1.3-6.5,3.8v-3.4h-4.2v27.1h4.2v-10.3c2,2.2,4.2,3.3,6.7,3.3s4.7-1,6.6-2.9
				s2.8-4.4,2.8-7.5S241.3,166.7,239.4,165"/>
			<path id="XMLID_178_" class="st1" d="M188.8,162.2c-1.4,0-2.7,0.4-3.9,1c-1.3,0.8-2.2,1.6-2.7,2.9v-11.4H178v27.7h4.2v-10.9
				c0-1.9,0.5-3.3,1.6-4.2c1-1,2.3-1.4,3.8-1.4c3,0,4.6,1.8,4.6,5.4v10.9h4.2v-12.2c0-2.5-0.6-4.6-2-6
				C192.8,162.9,191,162.2,188.8,162.2"/>
			<path id="XMLID_177_" class="st1" d="M172.9,169.8c-1.4-1.1-3.4-2-6.1-2.8c-2.7-0.6-4.4-1.3-5.2-1.8c-0.8-0.5-1.3-1.4-1.3-2.4
				c0-1,0.4-1.9,1.3-2.4c0.8-0.5,1.9-0.8,3.2-0.8c1.3,0,2.5,0.3,3.9,0.6c1.3,0.5,2.4,1,3.2,1.8l2.4-3.3c-1.1-1-2.7-1.8-4.3-2.3
				c-1.6-0.5-3.3-0.8-4.9-0.8c-2.5,0-4.8,0.6-6.5,1.9c-1.8,1.3-2.7,3.2-2.7,5.6c0,2.4,0.8,4.2,2.3,5.3c0.8,0.6,1.6,1.1,2.7,1.5
				s2.4,0.8,4.4,1.3c1.9,0.5,3.3,1,4.1,1.5c0.8,0.5,1.1,1.4,1.1,2.4c0,1-0.4,1.8-1.3,2.4c-0.9,0.6-1.9,0.9-3.4,0.9
				c-2.8,0-5.6-1.1-8.2-3.4l-2.8,3.3c3.2,2.8,6.8,4.2,10.9,4.2c2.8,0,5.1-0.8,6.7-2.2c1.8-1.4,2.5-3.3,2.5-5.6
				C175,172.6,174.3,171,172.9,169.8"/>
		</g>
		<path id="XMLID_176_" class="st1" d="M131.7,132.2c0.6-0.2,1-0.4,1.6-0.6c0.6-0.2,1.2-0.4,1.8-0.6c0.8-0.2,1.6-0.4,2.2-0.6
			c1-0.2,2-0.4,3.2-0.4c-0.6,1.8-1.2,3.8-2,5.7c0,0.4,0,0.8,0,1c1.4-0.2,3-0.4,4.4-0.4c1.6,0,3,0.2,4.4,0.4c0-0.4,0-0.8,0-1
			c-0.8-1.8-1.4-3.6-2-5.7c1,0.2,2.2,0.2,3.2,0.4c0.8,0.2,1.6,0.4,2.2,0.6s1.2,0.4,1.8,0.6s1,0.4,1.6,0.6c3.6,1.6,7.1,4,9.7,7.3
			c6.9-5.9,11.3-14.7,11.3-24.4c0-18-14.5-32.3-32.3-32.3s-32.3,14.5-32.3,32.3c0,9.7,4.4,18.6,11.3,24.4
			C124.8,136.3,128.1,133.9,131.7,132.2z"/>
		<path id="XMLID_175_" class="st2" d="M133.9,138.1c1.6-0.6,3-1.2,4.8-1.6c0-0.4,0-0.8,0-1c0.8-1.8,1.4-3.6,2-5.7
			c-1,0.2-2.2,0.2-3.2,0.4c-0.8,0.2-1.6,0.4-2.2,0.6s-1.2,0.4-1.8,0.6l2.4,0.6L133.9,138.1z"/>
		<path id="XMLID_174_" class="st2" d="M128.3,141.5c0-0.6,0-1.2,0-1.8c0-0.4,0.2-0.6,0.6-0.6h0.6l2-6.9c-3.6,1.6-7.1,4-9.7,7.3
			c1.4,1.2,3.2,2.4,4.8,3.4C127.3,142.5,127.9,141.9,128.3,141.5z"/>
		<path id="XMLID_173_" class="st2" d="M154.5,132.2l2,6.9h0.6c0.4,0,0.6,0.2,0.6,0.6c0,0.6,0,1.2,0,1.8c0.4,0.4,1,0.8,1.4,1.4
			c1.8-1,3.4-2.2,4.8-3.4C161.6,136.3,158.1,133.9,154.5,132.2z"/>
		<path id="XMLID_172_" class="st2" d="M150.7,132.2l2.4-0.6c-0.6-0.2-1.2-0.4-1.8-0.6c-0.8-0.2-1.6-0.4-2.2-0.6
			c-1-0.2-2-0.4-3.2-0.4c0.6,1.8,1.2,3.8,2,5.7c0,0.4,0,0.8,0,1c1.6,0.4,3.2,0.8,4.8,1.6L150.7,132.2z"/>
		<path id="XMLID_171_" d="M143.2,139.1h4.6c0-0.8-0.2-1.6-0.2-2.4c-1.4-0.2-3-0.4-4.4-0.4c-1.6,0-3,0.2-4.4,0.4
			c0,0.8,0,1.6-0.2,2.4H143.2z"/>
		<path id="XMLID_170_" d="M126.8,142.9c0.4,0.2,0.8,0.4,1.2,0.6c0.2-0.6,0.2-1.2,0.4-2C127.9,141.9,127.3,142.5,126.8,142.9z"/>
		<path id="XMLID_169_" d="M133.5,139.1h5c0-0.8,0.2-1.6,0.2-2.4c-1.6,0.4-3.2,0.8-4.8,1.6L133.5,139.1z"/>
		<path id="XMLID_168_" d="M157.9,141.5c0,0.6,0.2,1.4,0.4,2c0.4-0.2,0.8-0.4,1.2-0.6C158.9,142.5,158.3,141.9,157.9,141.5z"/>
		<path id="XMLID_167_" d="M152.7,139.1l-0.2-1c-1.6-0.6-3-1.2-4.8-1.6c0,0.8,0,1.6,0.2,2.4L152.7,139.1L152.7,139.1z"/>
		<path id="XMLID_166_" class="st3" d="M133.5,139.1l0.2-1l1.8-5.9l-2.4-0.6c-0.6,0.2-1,0.4-1.6,0.6l-2,6.9h2.2H133.5L133.5,139.1z"
			/>
		<path id="XMLID_165_" class="st3" d="M152.3,138.1l0.2,1h1.6h2.2l-2-6.9c-0.6-0.2-1-0.4-1.6-0.6l-2.4,0.6L152.3,138.1z"/>
		<path id="XMLID_164_" class="st4" d="M129.7,140.5C129.7,140.5,129.9,140.5,129.7,140.5L129.7,140.5L129.7,140.5z"/>
		<path id="XMLID_163_" class="st4" d="M143.2,140.3h-4.8h-5.2h-3.4l0,0c0,1.2-0.2,2.4-0.4,3.6c4.2,2,8.9,3,13.9,3V140.3z"/>
		<path id="XMLID_162_" class="st3" d="M156.5,140.3L156.5,140.3C156.5,140.5,156.5,140.5,156.5,140.3
			C156.5,140.5,156.5,140.5,156.5,140.3z"/>
		<path id="XMLID_161_" class="st3" d="M156.5,140.3h-3.4h-5.2h-4.6l0,0v6.9c5,0,9.7-1.2,13.9-3
			C156.7,142.9,156.5,141.7,156.5,140.3C156.5,140.5,156.5,140.5,156.5,140.3z"/>
		<rect id="XMLID_160_" x="143.2" y="139.7" class="st5" width="0" height="0.6"/>
		<path id="XMLID_159_" class="st6" d="M157.9,141.5c0-0.6,0-1.2,0-1.8c0-0.4-0.2-0.6-0.6-0.6h-0.6h-2.2h-1.6h-5h-4.6h-4.6h-5h-1.6
			h-2.2h-0.6c-0.4,0-0.6,0.2-0.6,0.6c0,0.6,0,1.2,0,1.8c0,0.6-0.2,1.4-0.4,2c0.4,0.2,0.8,0.4,1.2,0.6c0.2-1.2,0.4-2.4,0.4-3.6l0,0
			l0,0h3.4h5.2h4.8l0,0h4.8h5.2h3.4l0,0l0,0c0,1.2,0.2,2.4,0.4,3.6c0.4-0.2,0.8-0.4,1.2-0.6C158.1,142.9,157.9,142.3,157.9,141.5z"
			/>
		<g id="XMLID_195_">
			<path id="XMLID_158_" class="st7" d="M154.1,110L154.1,110L154.1,110c0.4,1.2,0.8,2.4,1,3.6v0.2c0,0.2,0,0.2,0,0.4
				c0-0.2,0-0.4,0-0.6C154.9,112.5,154.5,111.2,154.1,110L154.1,110L154.1,110L154.1,110z"/>
			<path id="XMLID_157_" class="st7" d="M163.4,117.3L163.4,117.3L163.4,117.3z"/>
			<path id="XMLID_156_" class="st7" d="M163.6,117.1C163.6,117.1,163.6,117.3,163.6,117.1C163.6,117.3,163.6,117.1,163.6,117.1z"/>
			<path id="XMLID_155_" class="st7" d="M153.1,109.2c-0.8-0.6-1.6-1.2-2.4-1.6l0,0C151.5,108,152.3,108.6,153.1,109.2z"/>
			<path id="XMLID_154_" class="st7" d="M160.6,116.9L160.6,116.9L160.6,116.9z"/>
			<path id="XMLID_153_" class="st7" d="M162,118.7L162,118.7L162,118.7z"/>
			<path id="XMLID_152_" class="st7" d="M155.1,114.3v0.2C154.9,114.5,154.9,114.3,155.1,114.3z"/>
			<path id="XMLID_151_" class="st7" d="M151.9,126c-0.4,0.8-0.8,1.6-1,2.4C151.1,127.6,151.3,126.8,151.9,126
				c0.2-0.2,0.4-0.6,0.4-0.8C152.1,125.6,152.1,125.8,151.9,126L151.9,126z"/>
			<path id="XMLID_150_" class="st7" d="M154.1,110C154.1,110,154.1,109.8,154.1,110L154.1,110C154.1,109.8,154.1,110,154.1,110
				c0.2,0.2,0.4,0.4,0.6,0.6C154.5,110.4,154.3,110.2,154.1,110z"/>
			<path id="XMLID_149_" class="st7" d="M147.6,114.3L147.6,114.3L147.6,114.3z"/>
			<path id="XMLID_148_" class="st7" d="M147.4,113.7L147.4,113.7L147.4,113.7z"/>
			<path id="XMLID_147_" class="st7" d="M149.5,106.8L149.5,106.8L149.5,106.8z"/>
			<path id="XMLID_146_" class="st7" d="M149.7,106.8L149.7,106.8L149.7,106.8z"/>
			<path id="XMLID_145_" class="st7" d="M150.9,109.4v0.2C150.7,109.6,150.9,109.6,150.9,109.4z"/>
			<path id="XMLID_144_" class="st7" d="M147.4,114.1L147.4,114.1L147.4,114.1z"/>
			<path id="XMLID_143_" class="st7" d="M163.2,120.3C163.2,120.3,163.4,120.5,163.2,120.3C163.4,120.5,163.2,120.3,163.2,120.3z"/>
			<path id="XMLID_142_" class="st7" d="M150.7,110.4c0,0.4,0,0.6,0,1C150.7,111.2,150.7,110.8,150.7,110.4z"/>
			<path id="XMLID_141_" class="st7" d="M147.6,114.5L147.6,114.5L147.6,114.5z"/>
			<path id="XMLID_140_" class="st7" d="M150.7,107.4c-0.2,0-0.4-0.2-0.8-0.4C150.3,107.2,150.5,107.4,150.7,107.4z"/>
			<path id="XMLID_139_" class="st7" d="M149.9,107L149.9,107L149.9,107z"/>
			<path id="XMLID_138_" class="st7" d="M150.7,107.4L150.7,107.4L150.7,107.4L150.7,107.4z"/>
			<path id="XMLID_137_" class="st7" d="M164.4,115.3L164.4,115.3L164.4,115.3L164.4,115.3C164.4,115.3,164.4,115.1,164.4,115.3
				C164.4,115.1,164.4,115.3,164.4,115.3L164.4,115.3z"/>
			<path id="XMLID_136_" class="st7" d="M158.9,115.1C159.1,115.1,159.1,115.3,158.9,115.1C159.1,115.3,159.1,115.3,158.9,115.1
				L158.9,115.1C159.1,115.3,159.1,115.1,158.9,115.1L158.9,115.1z"/>
			<path id="XMLID_135_" class="st7" d="M154.5,110.4c0.4,0.4,0.8,0.8,1.2,1.2C155.5,111.2,155.1,110.8,154.5,110.4z"/>
			<path id="XMLID_134_" class="st7" d="M163,113.1h0.2C163.2,113.1,163.2,113.1,163,113.1z"/>
			<path id="XMLID_133_" class="st7" d="M161.8,114.7L161.8,114.7L161.8,114.7z"/>
			<path id="XMLID_132_" class="st7" d="M163.4,113.1L163.4,113.1L163.4,113.1z"/>
			<path id="XMLID_131_" class="st7" d="M163.8,113.5L163.8,113.5L163.8,113.5z"/>
			<path id="XMLID_130_" class="st7" d="M164.2,114.7L164.2,114.7L164.2,114.7L164.2,114.7L164.2,114.7z"/>
			<path id="XMLID_129_" class="st7" d="M164.2,115.7L164.2,115.7L164.2,115.7L164.2,115.7L164.2,115.7z"/>
			<path id="XMLID_128_" class="st7" d="M162.2,113.5L162.2,113.5L162.2,113.5z"/>
			<path id="XMLID_127_" class="st7" d="M162.8,113.1h0.2C163,113.1,162.8,113.1,162.8,113.1z"/>
			<path id="XMLID_126_" class="st7" d="M157.1,112.9c-0.2-0.2-0.4-0.4-0.6-0.6C156.7,112.5,156.9,112.7,157.1,112.9z"/>
			<path id="XMLID_125_" class="st7" d="M163,106L163,106L163,106v3l-1.2,5.2l0,0l0,0l0,0l0,0l1.2-5.2V106L163,106L163,106L163,106z
				"/>
			<path id="XMLID_124_" class="st7" d="M158.1,114.1c-0.2-0.2-0.2-0.2-0.4-0.4C157.9,113.9,157.9,114.1,158.1,114.1z"/>
			<path id="XMLID_123_" class="st7" d="M164.2,114.3L164.2,114.3L164.2,114.3L164.2,114.3L164.2,114.3L164.2,114.3z"/>
			<path id="XMLID_122_" class="st7" d="M161.8,115.3L161.8,115.3C161.8,115.3,161.8,115.1,161.8,115.3
				C161.8,115.1,161.8,115.3,161.8,115.3z"/>
			<path id="XMLID_121_" class="st7" d="M162.6,113.1L162.6,113.1L162.6,113.1z"/>
			<path id="XMLID_120_" class="st7" d="M162.4,113.3L162.4,113.3L162.4,113.3z"/>
			<path id="XMLID_119_" class="st7" d="M164.2,116.1L164.2,116.1c0,0.2,0,0.2-0.2,0.4C164.2,116.3,164.2,116.3,164.2,116.1
				L164.2,116.1L164.2,116.1z"/>
			<path id="XMLID_118_" class="st7" d="M124.8,114.3c0,0,0-0.2,0.2-0.2C124.8,114.1,124.8,114.1,124.8,114.3z"/>
			<path id="XMLID_117_" class="st7" d="M163.6,113.3L163.6,113.3L163.6,113.3z"/>
			<path id="XMLID_116_" class="st7" d="M125.6,112.9C125.6,112.9,125.8,112.9,125.6,112.9C125.8,112.9,125.6,112.9,125.6,112.9z"/>
			<path id="XMLID_115_" class="st7" d="M147.8,115.3L147.8,115.3L147.8,115.3L147.8,115.3L147.8,115.3L147.8,115.3L147.8,115.3z"/>
			<path id="XMLID_114_" class="st7" d="M123.4,116.9c0,0.2-0.2,0.2-0.2,0.4C123.2,117.1,123.4,116.9,123.4,116.9z"/>
			<path id="XMLID_113_" class="st7" d="M122.6,118.5L122.6,118.5L122.6,118.5z"/>
			<path id="XMLID_112_" class="st7" d="M163.8,106.6L163.8,106.6L163.8,106.6z"/>
			<path id="XMLID_111_" class="st7" d="M129.1,109.2L129.1,109.2L129.1,109.2z"/>
			<path id="XMLID_110_" class="st7" d="M127.9,110.4C127.9,110.4,127.9,110.2,127.9,110.4C127.9,110.2,127.9,110.4,127.9,110.4z"/>
			<path id="XMLID_109_" class="st7" d="M126.6,111.7l0.2-0.2C126.8,111.4,126.6,111.7,126.6,111.7z"/>
			<path id="XMLID_108_" class="st7" d="M164.2,114.3L163,109L164.2,114.3z"/>
			<path id="XMLID_107_" class="st7" d="M144,118.1L144,118.1L144,118.1z"/>
			<path id="XMLID_106_" class="st7" d="M144.4,118.3L144.4,118.3L144.4,118.3z"/>
			<path id="XMLID_105_" class="st7" d="M124,115.5c0,0.2-0.2,0.2-0.2,0.4C124,115.7,124,115.5,124,115.5z"/>
			<path id="XMLID_104_" class="st7" d="M143.2,117.9L143.2,117.9L143.2,117.9z"/>
			<path id="XMLID_103_" class="st7" d="M143.8,118.1L143.8,118.1L143.8,118.1z"/>
			<path id="XMLID_102_" class="st7" d="M143.4,118.1L143.4,118.1L143.4,118.1z"/>
			<path id="XMLID_101_" class="st7" d="M141.8,116.3L141.8,116.3L141.8,116.3z"/>
			<path id="XMLID_100_" class="st7" d="M141.8,114.5L141.8,114.5L141.8,114.5z"/>
			<path id="XMLID_99_" class="st7" d="M142,113.7L142,113.7L142,113.7z"/>
			<path id="XMLID_98_" class="st7" d="M143,112.7L143,112.7L143,112.7z"/>
			<path id="XMLID_97_" class="st7" d="M141.8,114.3L141.8,114.3L141.8,114.3z"/>
			<path id="XMLID_96_" class="st7" d="M142,114.1L142,114.1L142,114.1z"/>
			<path id="XMLID_95_" class="st7" d="M145.2,112.3L145.2,112.3L145.2,112.3z"/>
			<path id="XMLID_94_" class="st7" d="M145.8,112.5L145.8,112.5L145.8,112.5z"/>
			<path id="XMLID_93_" class="st7" d="M143.6,112.5L143.6,112.5L143.6,112.5z"/>
			<path id="XMLID_92_" class="st7" d="M144.2,112.3L144.2,112.3L144.2,112.3z"/>
			<path id="XMLID_91_" class="st7" d="M147.6,114.9L147.6,114.9L147.6,114.9z"/>
			<path id="XMLID_90_" class="st7" d="M144.8,105.4L144.8,105.4L144.8,105.4z"/>
			<path id="XMLID_89_" class="st7" d="M144.8,105.2L144.8,105.2L144.8,105.2z"/>
			<path id="XMLID_88_" class="st7" d="M144.8,105L144.8,105L144.8,105z"/>
			<path id="XMLID_87_" class="st7" d="M144.8,105.8L144.8,105.8L144.8,105.8c0-0.2,0-0.2,0-0.4
				C144.8,105.6,144.8,105.8,144.8,105.8z"/>
			<path id="XMLID_86_" class="st7" d="M164,116.9C163.8,116.9,163.8,116.9,164,116.9C163.8,116.9,163.8,116.9,164,116.9z"/>
			<path id="XMLID_85_" class="st7" d="M141.6,114.9L141.6,114.9L141.6,114.9z"/>
			<path id="XMLID_84_" class="st7" d="M141.8,115.9L141.8,115.9L141.8,115.9z"/>
			<path id="XMLID_83_" class="st7" d="M164,116.5c0,0,0,0.2-0.2,0.2C164,116.7,164,116.7,164,116.5z"/>
			<path id="XMLID_82_" class="st2" d="M152.5,134.5c0-0.2-0.2-0.2-0.2-0.4C152.3,134.3,152.3,134.3,152.5,134.5L152.5,134.5z"/>
			<path id="XMLID_81_" class="st3" d="M153.1,135.3L153.1,135.3L153.1,135.3c0,0-0.4-0.2-0.8-0.8l0,0
				C152.9,134.9,153.1,135.3,153.1,135.3z"/>
			<ellipse id="XMLID_80_" class="st8" cx="163" cy="106" rx="0" ry="0"/>
			<path id="XMLID_79_" class="st8" d="M164.4,115.3L164.4,115.3L164.4,115.3L164.4,115.3z"/>
			<path id="XMLID_78_" class="st9" d="M164.6,107.8L164.6,107.8L164.6,107.8L164.6,107.8L164.6,107.8c-0.2-0.4-0.6-0.8-0.8-1l0,0
				l0,0l0,0l0,0c-0.2-0.2-0.2-0.2-0.4-0.4c0,0-0.2,0-0.2-0.2L163,106l0,0v3l1.2,5.2l0,0c0,0,0,0,0,0.2l0.8,0.8l0,0h0.8v-0.2l0,0
				C165.8,112.5,165.4,110,164.6,107.8L164.6,107.8L164.6,107.8z"/>
			<path id="XMLID_77_" class="st9" d="M164.4,115.3L164.4,115.3L164.4,115.3L164.4,115.3z"/>
			<path id="XMLID_76_" class="st10" d="M164.2,114.7L164.2,114.7L164.2,114.7L164.2,114.7c0,0.2,0,0.2,0,0.4l0,0l0,0l0,0l0,0
				c0,0.2,0,0.2,0,0.4l0,0l0,0l0,0c0,0.2,0,0.2,0,0.4l0,0l0,0l0,0l0,0l0,0l0.8-0.8l-0.8-0.8l0,0
				C164.2,114.5,164.2,114.7,164.2,114.7z"/>
			<path id="XMLID_219_" d="M164.2,115.7L164.2,115.7c0-0.2,0-0.2,0-0.4l0,0l0,0c0-0.2,0-0.2,0-0.4l0,0c0-0.2,0-0.2,0-0.4
				c0,0,0,0,0-0.2c0-0.2-0.2-0.4-0.4-0.6l0,0c0,0,0,0-0.2-0.2l-0.2-0.2l0,0h-0.2l0,0H163h-0.2l0,0h-0.2l0,0c0,0-0.2,0-0.2,0.2
				c0,0,0,0-0.2,0.2l0,0c-0.2,0.2-0.2,0.4-0.4,0.6l0,0c0,0.2,0,0.2,0,0.4c0,0,0,0,0,0.2c0,0.2,0,0.2,0,0.4l0,0l0,0
				c0,1.2,0.6,2.2,1.2,2.2c0.2,0,0.2,0,0.4,0l0,0c0,0,0,0,0.2,0l0,0l0.2-0.2c0,0,0,0,0.2-0.2c0,0,0,0,0-0.2c0,0,0-0.2,0.2-0.2l0,0
				c0-0.2,0-0.2,0.2-0.4C164.2,116.1,164.2,115.9,164.2,115.7z M163,114.9c-0.2,0-0.4-0.4-0.4-0.8s0.2-0.8,0.4-0.8
				c0.2,0,0.4,0.4,0.4,0.8C163.6,114.5,163.4,114.9,163,114.9z"/>
			<ellipse id="XMLID_73_" class="st8" cx="163" cy="114.1" rx="0.4" ry="0.8"/>
			<path id="XMLID_72_" class="st11" d="M161.8,114.3L161.8,114.3c0-0.2,0.2-0.4,0.4-0.6l0,0c0,0,0,0,0.2-0.2l0.2-0.2l0,0h0.2l0,0
				h0.2h0.2l0,0h0.2l0,0c0,0,0.2,0,0.2,0.2c0,0,0,0,0.2,0.2l0,0c0.2,0.2,0.2,0.4,0.4,0.6l0,0l0,0L163,109L161.8,114.3L161.8,114.3z"
				/>
			<path id="XMLID_214_" d="M147.8,115.1c0-0.2,0-0.2,0-0.4l0,0c0-0.2,0-0.2,0-0.2l0,0v-0.2l0,0c0,0,0-0.2-0.2-0.2l0,0
				c0,0,0-0.2-0.2-0.2l0,0c-0.2-0.2-0.4-0.4-0.6-0.6c-0.2-0.2-0.6-0.4-1-0.6l0,0c-0.2,0-0.4-0.2-0.6-0.2l0,0c-0.2,0-0.4,0-0.6,0
				s-0.4,0-0.6,0l0,0c-0.2,0-0.4,0-0.6,0.2l0,0c-0.2,0-0.4,0.2-0.4,0.2l0,0c-0.2,0.2-0.4,0.2-0.4,0.4l0,0l0,0
				c-0.2,0.2-0.4,0.4-0.6,0.6l0,0c0,0,0,0.2-0.2,0.2l0,0v0.2l0,0v0.2l0,0v0.2l0,0c0,0.2,0,0.2,0,0.4c0,0.2,0,0.4,0,0.6l0,0
				c0,0.2,0,0.4,0.2,0.6l0,0c0.2,0.4,0.4,0.6,0.6,1c0.2,0.2,0.4,0.4,0.8,0.6l0,0c0,0,0.2,0,0.2,0.2l0,0h0.2l0,0h0.2l0,0h0.2l0,0
				c0.2,0,0.2,0,0.4,0c0.4,0,0.8,0,1.2-0.2c0.2,0,0.4-0.2,0.6-0.2c0.4-0.2,0.6-0.4,0.8-0.8c0.2-0.2,0.2-0.4,0.2-0.6
				C147.6,116.1,147.8,115.7,147.8,115.1C147.8,115.3,147.8,115.3,147.8,115.1L147.8,115.1C147.8,115.3,147.8,115.3,147.8,115.1
				L147.8,115.1z M144.6,114.9c-0.6,0-1.2-0.6-1.2-1.2c0-0.6,0.6-1.2,1.2-1.2s1.2,0.6,1.2,1.2C145.8,114.3,145.4,114.9,144.6,114.9z
				"/>
			<circle id="XMLID_69_" class="st8" cx="144.6" cy="113.7" r="1.2"/>
			<path id="XMLID_68_" class="st9" d="M142.6,113.1L142.6,113.1L142.6,113.1L142.6,113.1L142.6,113.1l2-6.5c0,0,0-0.4,0-0.8
				c0-0.2,0-0.2,0-0.4l0,0c0,0,0,0,0-0.2l0,0l0,0l0,0l0,0c-1.2-0.2-2.4-0.4-3.6-0.4c-0.4,0-0.8,0-1.2,0h-0.2c-2,0.2-4.2,0.8-6.1,1.6
				c-1.6,0.8-3.2,1.8-4.6,2.8l0,0l0,0c-0.4,0.4-0.8,0.6-1,1l-0.2,0.2c-0.4,0.4-0.6,0.6-1,1l-0.2,0.2c-0.4,0.4-0.6,0.8-0.8,1l0,0
				c-0.2,0.4-0.6,0.8-0.8,1.2c0,0,0,0.2-0.2,0.2c-0.2,0.4-0.4,0.6-0.6,1h9.5l0,0L142.6,113.1z"/>
			<path id="XMLID_67_" class="st12" d="M150.7,112.3c0-0.2,0-0.4,0-0.8s0-0.6,0-1c0-0.2,0-0.6,0-0.8v-0.2c0-0.6,0-1.4,0-2l0,0l0,0
				l0,0l0,0l0,0l0,0c-0.2,0-0.4-0.2-0.8-0.4l0,0c0,0-0.2,0-0.2-0.2l0,0c0,0,0,0-0.2,0l0,0l0,0c-0.4-0.2-0.8-0.4-1.4-0.6
				c-1-0.4-2.6-0.8-3.4-1v0.6v0.2l0,0c0,0.4,0,0.8,0,0.8l2,6.5l0,0c0.2,0.2,0.4,0.4,0.6,0.6l0,0c0,0,0,0.2,0.2,0.2l0,0
				c0,0,0,0.2,0.2,0.2l0,0v0.2l0,0v0.2l0,0c0,0.2,0,0.2,0,0.4l0,0l0,0h2.6C150.5,114.3,150.7,113.3,150.7,112.3L150.7,112.3z"/>
			<path id="XMLID_66_" class="st13" d="M154.1,110L154.1,110L154.1,110L154.1,110z"/>
			<path id="XMLID_65_" class="st13" d="M147.8,124.4c0.6-0.6,1.2-1.2,1.6-1.6c0.4-0.4,0.6-0.6,0.8-1c2.2-2.2,3.6-4.4,4.6-7.3v-0.2
				l0,0c0-0.2,0-0.2,0-0.4v-0.2c-0.2-1.2-0.6-2.4-1-3.6l0,0l0,0l-0.2-0.2c-0.2-0.2-0.4-0.4-0.8-0.6c-0.8-0.6-1.6-1.2-2.4-1.6l0,0
				c0,0.6,0,1.4,0,2v0.2c0,0.2,0,0.6,0,0.8c0,0.4,0,0.6,0,1c0,0.2,0,0.4,0,0.8l0,0c0,1-0.2,1.8-0.4,2.8l-0.2,1.4
				c-0.6,2.6-1.8,4.8-3,7.3c-0.2,0.6-0.6,1.2-0.8,1.8v0.2c0.4-0.4,0.6-0.6,0.8-0.8C147.2,124.8,147.6,124.6,147.8,124.4z"/>
			<path id="XMLID_64_" class="st11" d="M142.6,113.1L142.6,113.1c0.2-0.2,0.2-0.2,0.4-0.4l0,0c0.2,0,0.4-0.2,0.4-0.2l0,0
				c0.2,0,0.4-0.2,0.6-0.2l0,0c0.2,0,0.4,0,0.6,0s0.4,0,0.6,0l0,0c0.2,0,0.4,0,0.6,0.2l0,0c0.4,0.2,0.6,0.4,1,0.6l0,0l-2-6.5
				L142.6,113.1z"/>
			<path id="XMLID_63_" class="st10" d="M141.8,116.3c0-0.2-0.2-0.4-0.2-0.6l0,0c0-0.2,0-0.4,0-0.6s0-0.2,0-0.4l0,0v-0.2l0,0v-0.2
				l0,0v-0.2l0,0c0,0,0-0.2,0.2-0.2l0,0c0.2-0.2,0.4-0.4,0.6-0.6l0,0l-8.9,2.2l0,0l8.7,2.2C142.2,117.1,142,116.7,141.8,116.3
				L141.8,116.3z"/>
			<path id="XMLID_62_" class="st12" d="M161.8,114.7L161.8,114.7c0-0.2,0-0.4,0.2-0.4l0,0l1.2-5.2v-3c-1-0.8-2-1.2-3-1.2
				c-1.4,0-2.6,0.8-3.4,1.6c-1,1-1.8,2.2-2.4,3.4v0.2c0.2,0.2,0.4,0.4,0.6,0.6c0.4,0.4,0.8,0.8,1.2,1.2c0.2,0.2,0.4,0.4,0.6,0.6
				c0.2,0.2,0.4,0.4,0.6,0.6c0.2,0.2,0.6,0.6,0.8,0.8c0.2,0.2,0.2,0.2,0.4,0.4c0.2,0.4,0.6,0.6,0.8,1l0,0c0,0,0,0,0,0.2h2.6l0,0
				C161.8,115.1,161.8,114.9,161.8,114.7z"/>
			<path id="XMLID_61_" class="st12" d="M154.1,110L154.1,110L154.1,110L154.1,110L154.1,110L154.1,110z"/>
			<path id="XMLID_60_" class="st2" d="M122.6,118.5L122.6,118.5c0.2-0.4,0.4-1,0.6-1.4c0-0.2,0.2-0.2,0.2-0.4
				c0.2-0.4,0.4-0.6,0.4-1c0-0.2,0.2-0.2,0.2-0.4c0,0,0-0.2,0.2-0.2c0.2-0.4,0.4-0.6,0.6-1c0,0,0-0.2,0.2-0.2
				c0.2-0.4,0.4-0.8,0.8-1.2l0,0c0.2-0.4,0.6-0.8,0.8-1l0.2-0.2c0.4-0.4,0.6-0.6,1-1l0.2-0.2c0.4-0.4,0.6-0.6,1-1l0,0
				c1.4-4.8,5.9-8.5,11.1-8.5c2,0,4.2,0.6,6.1,1.6c1.8,1.2,3.4,2.8,4.4,4.6l0,0c0,0,0,0,0,0.2l0,0l0,0l0,0l0,0
				c0.8,0.6,1.6,1,2.4,1.6c0.2,0.2,0.4,0.4,0.8,0.6l0.2,0.2l0,0l0,0v-0.2c0.8-4.6,2.8-8.1,5.2-8.1c1.8,0,3.4,1.8,4.4,4.8l0,0l0,0
				c0.2,0.4,0.6,0.6,0.8,1l0,0l0,0l0,0l0,0c0,0,0,0,0,0.2l0,0v-0.2c-3-8.9-11.5-15.3-21.6-15.3c-12.5,0-22.6,10.1-22.6,22.6
				c0,2.4,0.4,4.8,1.2,7.1l0,0c0.2-0.6,0.4-1.4,0.6-2C122.2,119.5,122.4,119.1,122.6,118.5z"/>
			<path id="XMLID_59_" class="st8" d="M165,115.3l-0.8,0.8l0,0l0,0c0,0.2,0,0.2-0.2,0.4l0,0c0,0,0,0.2-0.2,0.2c0,0,0,0,0,0.2
				c0,0,0,0-0.2,0.2l-0.2,0.2l0,0c0,0,0,0-0.2,0l0,0c-0.2,0-0.2,0-0.4,0c-0.8,0-1.2-1-1.2-2.2l0,0l0,0h-2.6l0,0l0,0
				c0.4,0.6,1,1.2,1.4,1.6l0,0c0.4,0.6,0.8,1.2,1.4,1.6l0,0c0.4,0.6,0.8,1,1.2,1.6c0,0,0,0.2,0.2,0.2c0.4,0.6,0.8,1.2,1.2,1.8l0,0
				c0.8-2.2,1.2-4.6,1.2-7.1l0,0L165,115.3L165,115.3z"/>
			<path id="XMLID_58_" d="M139.8,104.8L139.8,104.8c0.6,0,1,0,1.4,0c1.2,0,2.4,0.2,3.6,0.4l0,0l0,0l0,0l0,0c0,0,0,0,0,0.2l0,0
				c0,0,0,0,0,0.2V105c0.8,0.2,2.2,0.6,3.4,1c0.4,0.2,0.8,0.4,1.4,0.6l0,0l0,0c0,0,0,0,0.2,0l0,0c0,0,0.2,0,0.2,0.2l0,0
				c0.2,0.2,0.6,0.4,0.8,0.4l0,0l0,0l0,0c0,0,0,0,0-0.2l0,0c-1-2-2.4-3.6-4.4-4.6c-1.8-1-3.8-1.6-6.1-1.6c-5.2,0-9.7,3.6-11.1,8.5
				c1.4-1.2,2.8-2.2,4.6-2.8C135.5,105.4,137.5,105,139.8,104.8z"/>
			<line id="XMLID_57_" class="st7" x1="144.8" y1="105.6" x2="144.8" y2="105.8"/>
			<path id="XMLID_56_" d="M156.5,106.4c1-0.8,2.2-1.6,3.4-1.6c1,0,2,0.4,3,1.2l0,0l0,0l0,0l0.2,0.2c0,0,0.2,0,0.2,0.2
				c0.2,0.2,0.2,0.2,0.4,0.4l0,0l0,0l0,0l0,0l0,0c-1-3-2.6-4.8-4.4-4.8c-2.4,0-4.4,3.4-5.2,8.1l0,0
				C154.7,108.6,155.5,107.4,156.5,106.4z"/>
			<path id="XMLID_55_" class="st8" d="M135.1,136.1c0.2,0,0.4,0.2,0.6,0.2c2.4,0.8,4.8,1.2,7.5,1.2c3,0,5.9-0.6,8.5-1.6
				c0.2,0,0.2-0.2,0.4-0.2s0.4-0.2,0.6-0.2c0.2,0,0.4-0.2,0.6-0.2c0,0,0,0-0.2,0l0,0c-0.8,0-1.6,0-2.4,0c-4.6-0.6-5.7-2.8-5.7-5.2
				c-0.4-0.2-0.6-0.4-1-0.6c-3.6-2.6-5.7-5.5-5.7-5.5s2.8,2.2,6.9,3.8h0.2c0.2-0.6,0.4-1.2,0.6-1.8l0,0v-0.2
				c0.2-0.6,0.4-1.2,0.8-1.8c1-2.4,2.2-4.6,3-7.3l0.2-1.4h-2.6l0,0l0,0l0,0l0,0l0,0l0,0c0,0.4,0,0.8-0.2,1.2c0,0.2-0.2,0.4-0.2,0.6
				c-0.2,0.4-0.4,0.6-0.8,0.8c-0.2,0.2-0.4,0.2-0.6,0.2c-0.4,0.2-0.8,0.2-1.2,0.2c-0.2,0-0.2,0-0.4,0l0,0h-0.2l0,0h-0.2l0,0h-0.2
				l0,0c0,0-0.2,0-0.2-0.2l0,0c-0.2-0.2-0.4-0.4-0.8-0.6l-8.7-2.2h-9.5c0,0,0,0.2-0.2,0.2c0,0.2-0.2,0.2-0.2,0.4
				c-0.2,0.4-0.4,0.6-0.4,1c0,0.2-0.2,0.2-0.2,0.4c-0.2,0.4-0.4,0.8-0.6,1.2l0,0c-0.2,0.4-0.4,1-0.6,1.6c-0.2,0.6-0.4,1.4-0.6,2
				c1.4,4.6,4.4,8.5,8.3,11.3c0.2,0,0.2,0.2,0.4,0.2c0.6,0.4,1.4,0.8,2,1.2C133.1,135.3,134.1,135.7,135.1,136.1z"/>
			<path id="XMLID_54_" class="st14" d="M150.7,129c0,0.2,0,0.4,0,0.8c0,0.4,0,0.8,0,1.2c0,0.2,0,0.4,0.2,0.8c0,0.4,0.2,0.6,0.4,1
				c0.2,0.2,0.2,0.6,0.4,0.8l0.2,0.2c0,0.2,0.2,0.2,0.2,0.4c0.2,0.2,0.2,0.2,0.2,0.4c0.4,0.4,0.8,0.8,0.8,0.8l0,0l0,0l0,0
				c0,0,0,0,0.2,0c1-0.2,2-0.4,3-0.8c0.6-0.2,1-0.4,1.6-0.6c0.2,0,0.4-0.2,0.4-0.2c5.2-2.4,9.5-6.9,9.5-6.9
				C161.4,129.8,154.9,129.8,150.7,129z"/>
			<path id="XMLID_53_" class="st15" d="M163.2,120.3c-0.4-0.6-0.8-1-1.2-1.6l0,0c-0.4-0.6-0.8-1.2-1.4-1.6l0,0
				c-0.4-0.6-1-1.2-1.4-1.6c0,0,0,0,0-0.2c-0.2-0.4-0.6-0.6-0.8-1c-0.2-0.2-0.2-0.2-0.4-0.4c-0.2-0.2-0.6-0.6-0.8-0.8
				c-0.2-0.2-0.4-0.4-0.6-0.6c-0.2-0.2-0.4-0.4-0.6-0.6c-0.4-0.4-0.8-0.8-1.2-1.2c-0.2-0.2-0.4-0.4-0.6-0.6l0,0
				c0.4,1.2,0.8,2.4,1.2,3.6c0,0.4,0.2,0.6,0.2,1c0.6,4.2-0.8,7.1-3,10.7c-0.2,0.2-0.4,0.6-0.4,0.8c-0.4,0.8-0.8,1.6-1,2.4
				c0,0.2-0.2,0.4-0.2,0.8c4.2,0.6,10.7,0.8,17.2-2.4c0,0-1.2-1.8-3.2-4.4C164.2,121.7,163.8,121.1,163.2,120.3
				C163.4,120.5,163.2,120.3,163.2,120.3z"/>
			<path id="XMLID_52_" d="M153.1,135.3c0,0-0.4-0.2-0.8-0.8c0-0.2-0.2-0.2-0.2-0.4c0-0.2-0.2-0.2-0.2-0.4l-0.2-0.2
				c-0.2-0.2-0.4-0.6-0.4-0.8c-0.2-0.2-0.2-0.6-0.4-1c0-0.2-0.2-0.4-0.2-0.8c0-0.4,0-0.8,0-1.2c0-0.2,0-0.4,0-0.8
				c0-0.2,0-0.4,0.2-0.8c0.2-0.8,0.4-1.6,1-2.4l0,0c0.2-0.2,0.4-0.6,0.4-0.8c2.2-3.6,3.4-6.5,3-10.7c0-0.4,0-0.6-0.2-1
				c0,0.2,0,0.4,0,0.6l0,0v0.2c-1,2.8-2.4,4.8-4.6,7.3c-0.2,0.4-0.6,0.6-0.8,1c-0.6,0.6-1,1-1.6,1.6c-0.2,0.2-0.4,0.4-0.6,0.6
				c-0.2,0.2-0.6,0.6-0.8,0.8l0,0c-0.2,0.6-0.4,1.2-0.6,1.8h-0.2c-4-1.6-6.9-3.8-6.9-3.8s2.2,2.8,5.7,5.5c0.4,0.2,0.6,0.4,1,0.6
				c-0.2,2.4,0.8,4.6,5.7,5.2C151.5,135.5,152.3,135.3,153.1,135.3L153.1,135.3L153.1,135.3z"/>
		</g>
	</g>
</g>
</svg>
