<?xml version="1.0" encoding="utf-8"?>
<!-- Generator: Adobe Illustrator 19.2.1, SVG Export Plug-In . SVG Version: 6.00 Build 0)  -->
<svg version="1.1" id="Calque_1" xmlns="http://www.w3.org/2000/svg" xmlns:xlink="http://www.w3.org/1999/xlink" x="0px" y="0px"
	 viewBox="0 0 283.5 283.5" style="enable-background:new 0 0 283.5 283.5;" xml:space="preserve">
<style type="text/css">
	.st0{fill:none;stroke:#A4C3E0;stroke-width:8;stroke-miterlimit:10;}
	.st1{fill:#A3C2DF;}
</style>
<circle class="st0" cx="142.4" cy="143.4" r="131"/>
<path class="st1" d="M217.4,149.8c-6.3,0-11.7,1.5-16.3,3.8c-1.7-3.3-3.4-6.3-3.7-8.4c-0.3-2.5-0.7-4.1-0.3-7.1
	c0.4-3,2.1-7.3,2.1-7.7c0-0.3-0.4-1.9-4-1.9s-6.8,0.7-7.1,1.7c-0.4,0.9-1.1,3.1-1.5,5.4c-0.6,3.3-7.2,15-11,21.2
	c-1.2-2.4-2.3-4.5-2.5-6.2c-0.3-2.5-0.7-4.1-0.3-7.1c0.4-3,2.1-7.3,2.1-7.7c0-0.3-0.4-1.9-4-1.9c-3.6,0-6.8,0.7-7.1,1.7
	c-0.4,0.9-0.7,3.2-1.5,5.4c-0.7,2.2-9.5,21.7-11.8,26.8c-1.2,2.6-2.2,4.7-2.9,6.1c-0.7,1.4,0,0.1-0.1,0.2c-0.6,1.2-1,1.9-1,1.9v0
	c-0.5,0.9-1,1.7-1.3,1.7c-0.2,0-0.5-2.4,0.1-5.6c1.3-6.8,4.5-17.4,4.4-17.8c0-0.2,0.6-2-2-3c-2.6-0.9-3.5,0.6-3.7,0.6
	c-0.2,0-0.4,0.6-0.4,0.6s2.8-11.9-5.5-11.9c-5.2,0-12.4,5.7-15.9,10.8c-2.3,1.2-7,3.8-12.1,6.6c-1.9,1.1-3.9,2.2-5.8,3.2l-0.4-0.4
	c-10.1-10.7-28.7-18.3-27.9-32.8c0.3-5.2,2.1-19.1,35.7-35.8c27.5-13.7,49.6-10,53.4-1.6c5.5,12-11.8,34.2-40.4,37.4
	c-10.9,1.2-16.6-3-18.1-4.6c-1.5-1.7-1.7-1.7-2.3-1.4c-0.9,0.5-0.4,2,0,2.8c0.8,2.2,4.4,6.2,10.3,8.1c5.2,1.7,18,2.7,33.5-3.3
	c17.3-6.7,30.9-25.4,26.9-40.9c-4-15.9-30.4-21.1-55.2-12.2c-14.8,5.3-30.9,13.5-42.4,24.3c-13.7,12.8-15.9,24-15,28.6
	c3.2,16.6,26,27.4,35.2,35.4c-0.5,0.2-0.9,0.5-1.3,0.7c-4.6,2.3-22,11.4-26.3,21c-4.9,10.9,0.8,18.8,4.6,19.8
	c11.7,3.3,23.8-2.6,30.3-12.3c6.5-9.7,5.7-22.2,2.7-28l-0.1-0.2l3.6-2.1c2.3-1.4,4.6-2.6,6.6-3.7c-1.1,3.1-1.9,6.7-2.4,12
	c-0.5,6.2,2,14.2,5.4,17.4c1.5,1.4,3.2,1.4,4.3,1.4c3.9,0,5.6-3.2,7.6-7c2.4-4.7,4.5-10.1,4.5-10.1s-2.6,14.7,4.6,14.7
	c2.6,0,5.3-3.4,6.5-5.2v0c0,0,0.1-0.1,0.2-0.4c0.1-0.2,0.3-0.4,0.4-0.7v-0.1c1.1-1.8,3.4-6,6.9-12.9c4.5-8.9,8.9-20.1,8.9-20.1
	s0.4,2.7,1.7,7.2c0.8,2.7,2.5,5.6,3.8,8.4c-1.1,1.5-1.7,2.3-1.7,2.3l0,0c-0.8,1.1-1.8,2.3-2.8,3.5c-3.6,4.3-7.9,9.2-8.4,10.6
	c-0.7,1.7-0.5,2.9,0.8,3.9c0.9,0.7,2.6,0.8,4.4,0.7c3.2-0.2,5.5-1,6.6-1.5c1.8-0.6,3.8-1.6,5.7-3c3.5-2.6,5.7-6.3,5.5-11.2
	c-0.1-2.7-1-5.4-2.1-7.9c0.3-0.5,0.6-0.9,0.9-1.4c5.6-8.1,9.8-17.1,9.8-17.1s0.4,2.7,1.7,7.2c0.7,2.3,2,4.8,3.2,7.2
	c-5.2,4.3-8.5,9.2-9.6,12.4c-2.1,6-0.5,8.7,2.6,9.3c1.4,0.3,3.3-0.4,4.8-1c1.8-0.6,4-1.6,6.1-3.1c3.5-2.6,6.9-6.2,6.7-11.1
	c-0.1-2.3-0.7-4.5-1.5-6.6c4.4-1.8,10.2-2.9,17.4-2c15.7,1.8,18.8,11.6,18.2,15.7c-0.6,4.1-3.9,6.3-5,7c-1.1,0.7-1.4,0.9-1.3,1.4
	c0.1,0.7,0.6,0.7,1.6,0.6c1.3-0.2,8.2-3.3,8.5-10.9C242.9,160.3,233.7,149.7,217.4,149.8L217.4,149.8z M96.7,190.5
	c-5.2,5.7-12.5,7.8-15.5,6c-3.3-1.9-2-10.3,4.3-16.3c3.9-3.7,8.9-7,12.2-9.1c0.7-0.5,1.9-1.1,3.2-1.9c0.2-0.1,0.4-0.2,0.4-0.2
	c0.2-0.1,0.5-0.3,0.8-0.5C104.4,177,102.2,184.6,96.7,190.5L96.7,190.5z M134.5,164.8c-1.8,4.4-5.6,15.7-7.9,15.1
	c-2-0.5-3.2-9.1-0.4-17.5c1.4-4.3,4.4-9.3,6.2-11.3c2.8-3.2,5.9-4.2,6.7-2.9C140,149.8,135.6,162.1,134.5,164.8z M165.7,179.7
	c-0.8,0.4-1.5,0.7-1.8,0.5c-0.2-0.1,0.3-0.7,0.3-0.7s3.9-4.2,5.5-6.1c0.9-1.1,1.9-2.4,3.1-3.9v0.4
	C172.8,175,167.9,178.3,165.7,179.7L165.7,179.7z M189.8,174.2c-0.6-0.4-0.5-1.7,1.4-5.8c0.7-1.6,2.4-4.3,5.3-6.9
	c0.4,1.1,0.6,2.1,0.5,3C197,170.9,192.5,173.2,189.8,174.2z"/>
</svg>
