<?xml version="1.0" encoding="utf-8"?>
<!-- Generator: Adobe Illustrator 19.2.1, SVG Export Plug-In . SVG Version: 6.00 Build 0)  -->
<svg version="1.1" id="Calque_1" xmlns="http://www.w3.org/2000/svg" xmlns:xlink="http://www.w3.org/1999/xlink" x="0px" y="0px"
	 viewBox="0 0 283.5 283.5" style="enable-background:new 0 0 283.5 283.5;" xml:space="preserve">
<style type="text/css">
	.st0{fill:none;stroke:#A4C3E0;stroke-width:8;stroke-miterlimit:10;}
	.st1{fill:#A3C2DF;}
	.st2{fill:#FFFFFF;}
</style>
<circle class="st0" cx="142.4" cy="143.4" r="131"/>
<g id="XMLID_1_">
	<circle id="XMLID_3_" class="st1" cx="143.9" cy="113.5" r="56.3"/>
	<path id="XMLID_15_" class="st2" d="M168.5,78.1c-5.7,0.2-10.7,3.4-14.4,7.7c-4.1,4.8-6.8,10.4-8.8,16.2c-3.5-2.9-6.2-6.6-11.9-8.3
		c-4.4-1.3-9-0.7-13.2,2.4c-2,1.5-3.4,3.7-4,5.9c-1.7,5.5,1.8,10.4,3.4,12.2l3.5,3.7c0.7,0.7,2.4,2.6,1.6,5.3
		c-0.9,3-4.5,4.9-8.1,3.7c-1.6-0.5-4-1.7-3.5-3.4c0.2-0.7,0.7-1.2,1-1.8c0.2-0.5,0.4-0.9,0.4-1.1c0.7-2.2-0.2-5-2.6-5.7
		c-2.2-0.7-4.4-0.1-5.3,2.7c-1,3.2,0.5,9,8.7,11.5c9.6,2.9,17.7-2.3,18.8-9.1c0.7-4.3-1.2-7.4-4.7-11.5l-2.9-3.2
		c-1.7-1.7-2.3-4.7-0.5-7c1.5-1.9,3.7-2.7,7.2-1.8c5.2,1.4,7.5,5,11.3,7.9c-1.6,5.2-2.6,10.4-3.6,15.1l-0.6,3.5
		c-2.7,14.4-4.8,22.3-10.3,26.8c-1.1,0.8-2.7,1.9-5,2c-1.2,0-1.6-0.8-1.7-1.2c0-0.9,0.7-1.3,1.2-1.7c0.7-0.4,1.8-1.1,1.8-3.2
		c-0.1-2.5-2.1-4.7-5.1-4.6c-2.2,0.1-5.6,2.2-5.5,6c0.1,4,3.8,7,9.4,6.8c3-0.1,9.7-1.3,16.2-9.1c7.7-9,9.8-19.2,11.4-26.8l1.8-9.9
		c1,0.1,2.1,0.2,3.2,0.2c9.5,0.2,14.3-4.7,14.4-8.3c0-2.2-1.4-4.3-3.5-4.3c-1.5,0-3.3,1-3.8,3.1c-0.4,2,3,3.8,0.3,5.6
		c-1.9,1.2-5.4,2.1-10.2,1.4l0.9-4.9c1.8-9.3,4-20.7,12.5-20.9c0.6,0,2.9,0,2.9,1.5c0,0.5-0.1,0.6-0.7,1.8c-0.6,0.9-0.8,1.6-0.8,2.5
		c0.1,2.4,1.9,3.9,4.5,3.8c3.5-0.1,4.5-3.5,4.4-5.2C178.5,80.5,174.2,77.9,168.5,78.1z"/>
	<path id="XMLID_18_" class="st1" d="M164.8,193.2c5.7,0,9.5,4.1,9.5,9.8c0,5.4-3.9,9.8-9.5,9.8c-5.6,0-9.5-4.4-9.5-9.8
		C155.2,197.3,159,193.2,164.8,193.2z M164.8,210c4,0,5.8-3.7,5.8-7c0-3.6-2.2-7-5.8-7c-3.7,0-5.9,3.4-5.9,7
		C158.9,206.4,160.7,210,164.8,210z"/>
	<path id="XMLID_19_" class="st1" d="M154.8,195v-1.3h-4.9v-1.8c0-2.5,0.4-4.4,3.3-4.4l0.2,0l0,0c0.8,0.1,1.5-0.6,1.6-1.4l0.1-1.1
		c-0.7-0.1-1.4-0.2-2.3-0.2c-5.1,0-6.3,3-6.3,7.5v1.5H142v1.5c0.1,0.8,0.8,1.3,1.5,1.3l0,0h2.8v15.9h1.9l0,0c0.8,0,1.4-0.6,1.5-1.4
		v-14.6h3.4C154.1,196.4,154.7,195.8,154.8,195z"/>
	<path id="XMLID_20_" class="st1" d="M108.9,193.7L108.9,193.7c-0.7,0-1.4,0.5-1.8,1.2l-4.7,14.3h-0.1l-4.6-14.3
		c-0.3-0.7-1-1.2-1.7-1.2l0,0h-2.4l6.3,17.5c0.2,0.6,0.7,1.6,0.7,2c0,0.4-1,4.6-4.1,4.6l-0.2,0c-0.8,0-1.4,0.5-1.5,1.4l-0.1,1.2
		c0.6,0.1,1.2,0.3,2.3,0.3c4.5,0,5.9-4.1,7.2-7.7l6.9-19.1L108.9,193.7L108.9,193.7z"/>
	<path id="XMLID_21_" class="st1" d="M87,197.5c-2.8-1.5-6-2.4-6-5.4c0-3.1,2.9-3.9,5.1-3.9l0,0c1,0,1.7,0.1,2.5,0.3l0,0
		c0.8,0.1,1.5-0.6,1.5-1.3l0.1-1.1c-1.4-0.4-3-0.5-4.3-0.5c-4.8,0-8.3,2.4-8.4,7c0,4,2.7,5.6,5.6,7c2.9,1.4,6,2.5,6,5.8
		c0,3.5-3.4,4.7-5.7,4.7c-1.3,0-2.8-0.3-4-0.7c-0.8-0.1-1.4,0.6-1.5,1.5l-0.1,1c1.7,0.5,3.4,1,5.2,1h0h0c5.4,0,9.5-2.2,9.6-7.7
		C92.6,200.7,89.9,198.9,87,197.5z"/>
	<path id="XMLID_22_" class="st1" d="M139.1,212.4L139.1,212.4c0.7,0,1.4-0.5,1.5-1.2v-10.8c0-4.1-1.7-7.1-6.5-7.1
		c-1.7,0-4.5,1-5.8,3.6c-1-2.5-3.2-3.6-5.3-3.6c-2.8,0-4.6,1-5.9,3.2H117v-1.2c0-0.9-0.7-1.5-1.6-1.5l0,0h-1.6v18.7h1.9l0,0
		c0.9,0,1.6-0.7,1.6-1.6l0,0v-7.8c0-3.5,1.4-6.9,4.9-6.9c2.8,0,3.3,2.9,3.3,5.2v11.1h1.9l0,0c0.8,0,1.5-0.6,1.5-1.4v-8
		c0-3.5,1.4-6.9,4.9-6.9c2.8,0,3.3,2.9,3.3,5.2v11.1L139.1,212.4L139.1,212.4z"/>
	<path id="XMLID_23_" class="st1" d="M192.3,212.4L192.3,212.4c0.8,0,1.5-0.7,1.6-1.5v-9.6c0-5-2.2-8-7-8c-2.6,0-5.1,1.3-6.1,3.4
		h-0.1v-1.4l0,0c0-0.9-0.7-1.6-1.6-1.6l0,0h-1.8v18.7h1.9l0,0c0.8,0,1.5-0.6,1.5-1.4v-7.2c0-4.5,1.8-7.7,5.7-7.7c3,0.2,4,2.3,4,6.7
		v9.7L192.3,212.4L192.3,212.4z"/>
	<path id="XMLID_24_" class="st1" d="M210.9,193.7L210.9,193.7c-0.7,0-1.4,0.5-1.8,1.2l-4.7,14.3h-0.1l-4.6-14.3
		c-0.3-0.7-1-1.2-1.7-1.2l0,0h-2.4l6.3,17.5c0.2,0.6,0.7,1.6,0.7,2c0,0.4-1,4.6-4.1,4.6l-0.2,0c-0.8,0-1.4,0.5-1.5,1.4l-0.1,1.2
		c0.6,0.1,1.2,0.3,2.3,0.3c4.5,0,5.9-4.1,7.2-7.7l6.9-19.1L210.9,193.7L210.9,193.7z"/>
</g>
</svg>
