<?xml version="1.0" encoding="utf-8"?>
<!-- Generator: Adobe Illustrator 19.2.1, SVG Export Plug-In . SVG Version: 6.00 Build 0)  -->
<svg version="1.1" id="Calque_1" xmlns="http://www.w3.org/2000/svg" xmlns:xlink="http://www.w3.org/1999/xlink" x="0px" y="0px"
	 viewBox="0 0 283.5 283.5" style="enable-background:new 0 0 283.5 283.5;" xml:space="preserve">
<style type="text/css">
	.st0{fill:none;stroke:#A4C3E0;stroke-width:8;stroke-miterlimit:10;}
	.st1{display:none;}
	.st2{display:inline;}
	.st3{fill:#A3C2DF;}
	.st4{enable-background:new    ;}
	.st5{fill:#FFFFFF;}
	.st6{fill:#A4C3E0;}
</style>
<circle class="st0" cx="142.4" cy="143.4" r="131"/>
<g class="st1">
	
		<g id="solid" inkscape:version="0.48.1 r9760" sodipodi:docname="twitter_bootstrap_logo.svg" xmlns:cc="http://creativecommons.org/ns#" xmlns:dc="http://purl.org/dc/elements/1.1/" xmlns:inkscape="http://www.inkscape.org/namespaces/inkscape" xmlns:rdf="http://www.w3.org/1999/02/22-rdf-syntax-ns#" xmlns:sodipodi="http://sodipodi.sourceforge.net/DTD/sodipodi-0.dtd" xmlns:svg="http://www.w3.org/2000/svg" class="st2">
		<path id="bg" class="st3" d="M95.6,163.9c0,4.5-3.7,8.2-8.2,8.2H54.5c-4.5,0-8.2-3.7-8.2-8.2V131c0-4.5,3.7-8.2,8.2-8.2h32.9
			c4.5,0,8.2,3.7,8.2,8.2V163.9z"/>
		<g id="B" class="st4">
			<path class="st5" d="M59.7,133.5h14c2.6,0,4.7,0.6,6.2,1.8c1.6,1.2,2.3,3,2.3,5.4c0,1.5-0.4,2.7-1.1,3.7s-1.7,1.8-3,2.4v0.1
				c1.8,0.4,3.1,1.2,4,2.5s1.4,2.9,1.4,4.9c0,1.1-0.2,2.2-0.6,3.2s-1,1.8-1.9,2.5s-2,1.3-3.3,1.7s-2.9,0.6-4.8,0.6H59.7V133.5
				L59.7,133.5z M64.7,145.6H73c1.2,0,2.2-0.3,3-1s1.2-1.7,1.2-3c0-1.5-0.4-2.5-1.1-3.1s-1.8-0.9-3.1-0.9h-8.2v8H64.7z M64.7,158.2
				h8.9c1.5,0,2.7-0.4,3.6-1.2c0.8-0.8,1.3-1.9,1.3-3.4c0-1.4-0.4-2.5-1.3-3.3s-2-1.1-3.6-1.1h-8.9V158.2z"/>
		</g>
	</g>
	<g class="st2">
		<path class="st3" d="M106.4,158.4v-23.2h8.7c1.8,0,3.2,0.2,4.3,0.7c1.1,0.5,1.9,1.2,2.5,2.2s0.9,2,0.9,3.1c0,1-0.3,1.9-0.8,2.8
			c-0.5,0.9-1.3,1.6-2.4,2.1c1.4,0.4,2.5,1.1,3.2,2.1c0.8,1,1.1,2.2,1.1,3.5c0,1.1-0.2,2.1-0.7,3s-1,1.7-1.7,2.2s-1.5,0.9-2.5,1.1
			c-1,0.3-2.3,0.4-3.7,0.4L106.4,158.4L106.4,158.4z M109.5,145h5c1.4,0,2.3-0.1,2.9-0.3c0.8-0.2,1.4-0.6,1.8-1.2
			c0.4-0.5,0.6-1.2,0.6-2s-0.2-1.4-0.6-2s-0.9-1-1.6-1.2s-1.9-0.3-3.5-0.3h-4.6C109.5,138,109.5,145,109.5,145z M109.5,155.7h5.8
			c1,0,1.7,0,2.1-0.1c0.7-0.1,1.3-0.3,1.8-0.6s0.9-0.7,1.2-1.3c0.3-0.6,0.5-1.2,0.5-2c0-0.9-0.2-1.6-0.7-2.3
			c-0.4-0.6-1.1-1.1-1.8-1.3c-0.8-0.3-1.9-0.4-3.4-0.4h-5.4L109.5,155.7L109.5,155.7z"/>
		<path class="st3" d="M126.7,150c0-3.1,0.9-5.4,2.6-6.9c1.4-1.2,3.2-1.9,5.3-1.9c2.3,0,4.2,0.8,5.7,2.3s2.2,3.6,2.2,6.3
			c0,2.2-0.3,3.9-1,5.1c-0.6,1.2-1.6,2.2-2.8,2.9s-2.6,1-4.1,1c-2.3,0-4.2-0.8-5.7-2.3C127.4,155,126.7,152.8,126.7,150z M129.6,150
			c0,2.1,0.5,3.8,1.4,4.8c0.9,1.1,2.1,1.6,3.5,1.6s2.6-0.5,3.5-1.6s1.4-2.7,1.4-4.9c0-2.1-0.5-3.6-1.4-4.7c-0.9-1.1-2.1-1.6-3.5-1.6
			s-2.6,0.5-3.5,1.6C130.1,146.2,129.6,147.9,129.6,150z"/>
		<path class="st3" d="M144.7,150c0-3.1,0.9-5.4,2.6-6.9c1.4-1.2,3.2-1.9,5.3-1.9c2.3,0,4.2,0.8,5.7,2.3s2.2,3.6,2.2,6.3
			c0,2.2-0.3,3.9-1,5.1c-0.6,1.2-1.6,2.2-2.8,2.9s-2.6,1-4.1,1c-2.3,0-4.2-0.8-5.7-2.3C145.4,155,144.7,152.8,144.7,150z M147.6,150
			c0,2.1,0.5,3.8,1.4,4.8c0.9,1.1,2.1,1.6,3.5,1.6s2.6-0.5,3.5-1.6s1.4-2.7,1.4-4.9c0-2.1-0.5-3.6-1.4-4.7c-0.9-1.1-2.1-1.6-3.5-1.6
			s-2.6,0.5-3.5,1.6C148.1,146.2,147.6,147.9,147.6,150z"/>
		<path class="st3" d="M170,155.8l0.4,2.5c-0.8,0.2-1.5,0.3-2.1,0.3c-1,0-1.8-0.2-2.4-0.5s-1-0.8-1.2-1.3s-0.3-1.7-0.3-3.4v-9.7
			h-2.1v-2.2h2.1v-4.2l2.8-1.7v5.9h2.9v2.2h-2.9v9.8c0,0.8,0,1.3,0.2,1.6c0.1,0.2,0.3,0.4,0.5,0.6c0.2,0.1,0.6,0.2,1,0.2
			C169,156,169.4,155.9,170,155.8z"/>
		<path class="st3" d="M171.6,153.4l2.8-0.4c0.2,1.1,0.6,2,1.3,2.6s1.7,0.9,3,0.9s2.3-0.3,2.9-0.8c0.6-0.5,0.9-1.2,0.9-1.9
			c0-0.6-0.3-1.1-0.8-1.5c-0.4-0.3-1.4-0.6-2.9-1c-2.1-0.5-3.5-1-4.3-1.4s-1.4-0.9-1.8-1.6c-0.4-0.7-0.6-1.4-0.6-2.3
			c0-0.7,0.2-1.4,0.5-2.1c0.3-0.6,0.8-1.2,1.4-1.6c0.4-0.3,1-0.6,1.8-0.8s1.6-0.3,2.5-0.3c1.3,0,2.5,0.2,3.5,0.6
			c1,0.4,1.7,0.9,2.2,1.5s0.8,1.5,1,2.6l-2.8,0.4c-0.1-0.9-0.5-1.5-1.1-2s-1.5-0.7-2.6-0.7c-1.3,0-2.2,0.2-2.8,0.6
			c-0.6,0.4-0.8,0.9-0.8,1.5c0,0.4,0.1,0.7,0.3,1s0.6,0.6,1.1,0.8c0.3,0.1,1.1,0.3,2.5,0.7c2,0.5,3.4,1,4.2,1.3s1.4,0.8,1.9,1.5
			s0.7,1.5,0.7,2.4s-0.3,1.8-0.8,2.7c-0.6,0.8-1.4,1.5-2.4,1.9c-1,0.5-2.2,0.7-3.5,0.7c-2.2,0-3.8-0.5-5-1.4
			C172.6,156.5,171.9,155.2,171.6,153.4z"/>
		<path class="st3" d="M195.1,155.8l0.4,2.5c-0.8,0.2-1.5,0.3-2.1,0.3c-1,0-1.8-0.2-2.4-0.5c-0.6-0.3-1-0.8-1.2-1.3
			s-0.3-1.7-0.3-3.4v-9.7h-2.1v-2.2h2.1v-4.2l2.8-1.7v5.9h2.9v2.2h-2.9v9.8c0,0.8,0,1.3,0.2,1.6c0.1,0.2,0.3,0.4,0.5,0.6
			c0.2,0.1,0.6,0.2,1,0.2C194.2,156,194.6,155.9,195.1,155.8z"/>
		<path class="st3" d="M197.9,158.4v-16.8h2.6v2.5c0.7-1.2,1.3-2,1.8-2.4c0.6-0.4,1.2-0.6,1.8-0.6c1,0,1.9,0.3,2.9,0.9l-1,2.6
			c-0.7-0.4-1.4-0.6-2.1-0.6c-0.6,0-1.2,0.2-1.7,0.6c-0.5,0.4-0.8,0.9-1.1,1.6c-0.3,1-0.5,2.1-0.5,3.3v8.8L197.9,158.4L197.9,158.4z
			"/>
		<path class="st3" d="M219.6,156.3c-1.1,0.9-2.1,1.5-3,1.9c-1,0.4-2,0.6-3.1,0.6c-1.8,0-3.3-0.5-4.2-1.4c-1-0.9-1.5-2.1-1.5-3.5
			c0-0.8,0.2-1.6,0.6-2.3c0.4-0.7,0.9-1.2,1.5-1.6c0.6-0.4,1.3-0.7,2-0.9c0.6-0.1,1.4-0.3,2.5-0.4c2.3-0.3,4-0.6,5.1-1
			c0-0.4,0-0.6,0-0.7c0-1.2-0.3-2-0.8-2.4c-0.7-0.6-1.8-1-3.2-1c-1.3,0-2.3,0.2-3,0.7c-0.6,0.5-1.1,1.3-1.4,2.5l-2.8-0.4
			c0.3-1.2,0.7-2.2,1.2-2.9c0.6-0.7,1.4-1.3,2.5-1.7s2.4-0.6,3.8-0.6c1.4,0,2.6,0.2,3.5,0.5s1.6,0.8,2,1.3s0.7,1.2,0.9,1.9
			c0.1,0.5,0.1,1.4,0.1,2.6v3.8c0,2.6,0.1,4.3,0.2,5c0.1,0.7,0.4,1.4,0.7,2h-3C219.9,157.8,219.7,157.1,219.6,156.3z M219.4,150
			c-1,0.4-2.6,0.8-4.6,1.1c-1.2,0.2-2,0.4-2.5,0.6c-0.5,0.2-0.9,0.5-1.1,0.9c-0.3,0.4-0.4,0.9-0.4,1.4c0,0.8,0.3,1.4,0.9,1.9
			c0.6,0.5,1.4,0.8,2.5,0.8s2.1-0.2,2.9-0.7c0.9-0.5,1.5-1.1,1.9-2c0.3-0.6,0.5-1.6,0.5-2.8L219.4,150L219.4,150z"/>
		<path class="st3" d="M226.7,164.8v-23.2h2.6v2.2c0.6-0.9,1.3-1.5,2.1-1.9s1.7-0.6,2.8-0.6c1.4,0,2.7,0.4,3.8,1.1
			c1.1,0.7,1.9,1.8,2.5,3.1s0.8,2.8,0.8,4.4c0,1.7-0.3,3.3-0.9,4.6c-0.6,1.4-1.5,2.4-2.7,3.2c-1.2,0.7-2.4,1.1-3.7,1.1
			c-0.9,0-1.8-0.2-2.6-0.6c-0.8-0.4-1.4-0.9-1.9-1.5v8.2h-2.8L226.7,164.8L226.7,164.8z M229.2,150.1c0,2.2,0.4,3.8,1.3,4.8
			c0.9,1,1.9,1.5,3.2,1.5s2.3-0.5,3.2-1.6s1.4-2.7,1.4-5c0-2.1-0.4-3.7-1.3-4.8c-0.9-1.1-1.9-1.6-3.2-1.6c-1.2,0-2.3,0.6-3.2,1.7
			C229.7,146.3,229.2,147.9,229.2,150.1z"/>
	</g>
</g>
<path class="st6" d="M74.2,129v46.2h12.2v-46.6h11.3l-1-10.6h-33l-1.4,11C62.3,129,74.2,128.9,74.2,129z"/>
<polygon class="st6" points="101.2,118.2 114.1,118.2 117.9,151.4 123.9,118.1 133.2,118.1 138.4,151.4 142.4,117.8 155.1,117.8 
	144.7,175 133.3,175 128,144 123,175.2 111.2,175.2 "/>
<rect x="159.7" y="118.2" class="st6" width="12.6" height="56.6"/>
<path class="st6" d="M213.6,120.3l-2,13.6c0,0-3.4-7.2-10.9-5.4c-2.4,0.5-10.1,2.9-10,20.9c0.3,6.8,0.7,16.2,8.2,16.5
	c2.5-0.4,7.5-0.7,6.8-14.7c-2.2,0.1-5.4,0-5.4,0v-9.9h16.8c0,0,6.2,34.2-17.5,34.9c-6.1,0.2-22,0.9-22-32.1
	c0.5-11.3,4.7-23.2,17.9-26.8C200.5,115.8,207.6,115.9,213.6,120.3z"/>
</svg>
