<?xml version="1.0" encoding="utf-8"?>
<!-- Generator: Adobe Illustrator 19.2.1, SVG Export Plug-In . SVG Version: 6.00 Build 0)  -->
<svg version="1.1" id="Calque_1" xmlns="http://www.w3.org/2000/svg" xmlns:xlink="http://www.w3.org/1999/xlink" x="0px" y="0px"
	 viewBox="0 0 283.5 283.5" style="enable-background:new 0 0 283.5 283.5;" xml:space="preserve">
<style type="text/css">
	.st0{fill:none;stroke:#A4C3E0;stroke-width:8;stroke-miterlimit:10;}
	.st1{fill:#A3C2DF;}
</style>
<circle class="st0" cx="142.4" cy="143.4" r="131"/>
<g>
	<path class="st1" d="M76.9,181.3c0.3-1.3,0.6-2.6,1.1-3.9c0.9-3.3,1.8-6.7,2.7-10c0.2-0.8,0.1-0.6,0.8-0.6c1.3,0,2.6,0,3.9,0
		c0.6,0,0.6,0,0.8,0.6c1.1,3.9,2,7.6,3.1,11.5c0.2,0.8,0.4,1.5,0.6,2.4c0.2-0.2,0.2-0.4,0.2-0.6c1.1-4.4,2.1-8.7,3.2-13.1
		c0,0,0,0,0-0.1c0.2-0.6,0.2-0.6,0.9-0.6c1.5,0,3,0,4.6,0c0.2,0,0.4,0,0.5,0.1c0,0.2,0,0.4-0.1,0.5c-1.9,6.4-3.9,13-5.8,19.5
		c-0.2,0.6-0.1,0.5-0.8,0.5c-1.6,0-3.2,0-4.8,0c-0.8,0-0.5,0.1-0.8-0.6c-1.2-4-2.3-8-3.4-11.9c0-0.2-0.1-0.3-0.2-0.4
		c-0.2,0.1-0.2,0.3-0.2,0.5c-1.2,3.9-2.3,7.8-3.4,11.7c-0.2,0.8,0,0.6-1,0.8c-1.6,0-3.1,0-4.7,0c-0.8,0-0.6,0.1-0.9-0.6
		c-1.7-5.6-3.3-11.3-5.1-17c-0.3-1-0.6-2-0.9-3c0.3-0.1,0.6-0.1,1-0.1c1.4,0,2.9,0,4.3,0c0.8,0,0.6-0.1,0.8,0.5
		c0.8,2.8,1.4,5.6,2,8.4c0.4,1.6,0.9,3.3,1.2,4.9c0,0.1,0.1,0.3,0.1,0.4C76.8,181.3,76.9,181.3,76.9,181.3z"/>
	<path class="st1" d="M127.1,185.8c0,0.5,0,1,0,1.5c0,0.3-0.1,0.4-0.3,0.4c-1.5,0-2.9,0-4.4,0c-0.2,0-0.3-0.1-0.3-0.3s0-0.3,0-0.5
		c0-8.9,0-17.9,0-26.9c0-0.1,0-0.2,0-0.3c0-0.5,0-0.5,0.5-0.5c1.5,0,2.9,0,4.4,0c0.5,0,0.5,0,0.5,0.5c0,2.8,0,5.7,0,8.5
		c0,0.2,0,0.5,0,0.8c0.2,0.1,0.2-0.1,0.3-0.1c2-1.9,4.5-2.5,7.2-2.1c4,0.5,6.6,2.9,7.7,6.7c1,3.1,0.9,6.2-0.5,9.2
		c-2.4,5.3-8,6.3-11.6,5.3c-1.1-0.3-2.1-1-3-1.7C127.6,186,127.5,185.8,127.1,185.8z M137.9,177.4c0-1.4-0.3-2.7-1.1-3.9
		c-2-3.1-6.8-3-8.6,0.1c-1.4,2.4-1.4,4.9,0,7.3c1.9,3.3,7.1,3.1,8.8-0.3C137.7,179.6,137.9,178.6,137.9,177.4z"/>
	<path class="st1" d="M151,185.5c0,2.1,0,4.1,0,6c0,1,0,1.9,0,2.9c0,0.3-0.1,0.5-0.4,0.5c-1.5,0-3,0-4.6,0c-0.3,0-0.4-0.1-0.4-0.4
		c0-0.1,0-0.2,0-0.3c0-8.8,0-17.6,0-26.4c0-1-0.1-0.9,0.9-0.9c1.2,0,2.4,0,3.7,0c0.8,0,0.8,0,0.8,0.8c0,0.3,0,0.8,0,1.1
		c0,0,0,0.1,0.1,0.1c0.1,0.1,0.1,0,0.2-0.1c2-2,4.5-2.7,7.2-2.3c5.3,0.6,8.2,4.7,8.6,9c0.3,2.3,0.1,4.4-0.8,6.6
		c-2.3,5.9-8.4,6.9-12,5.5C152.9,187.2,152,186.5,151,185.5z M150.9,177.4c0,0.5,0,1.2,0.2,1.7c0.5,2.5,2.4,4.1,4.7,4.2
		c2.6,0.1,4.5-1.3,5.3-3.8c0.4-1.6,0.4-3.1,0-4.7c-0.8-2.1-2.4-3.4-4.6-3.5c-2.3-0.1-4.1,1.1-4.9,3.1
		C151,175.3,150.9,176.3,150.9,177.4z"/>
	<path class="st1" d="M212.9,175.4c0.3-0.2,0.4-0.4,0.6-0.6c1.8-2.5,3.8-4.8,5.6-7.3c0.3-0.4,0.5-0.5,1.1-0.5c1.7,0,3.5,0,5.4,0
		c-0.1,0.3-0.2,0.5-0.4,0.8c-2.1,2.7-4.2,5.5-6.3,8.2c-0.4,0.6-0.4,0.4,0,1.1c2.4,3.3,4.6,6.7,7,10.1c0.1,0.2,0.3,0.3,0.3,0.6
		c-0.1,0.1-0.3,0.1-0.4,0.1c-1.7,0-3.5,0-5.3,0c-0.4,0-0.6-0.2-0.9-0.5c-2-3.1-4-6.2-6-9.2c-0.1-0.2-0.2-0.4-0.5-0.6
		c-0.1,0.3-0.1,0.5-0.1,0.9c0,2.9,0,5.9,0,8.8c0,0.9,0.1,0.8-0.8,0.8c-1.4,0-2.8,0-4.2,0c-0.4,0-0.5-0.1-0.5-0.5c0-1.2,0-2.5,0-3.7
		c0-7.8,0-15.6,0-23.4c0-0.1,0-0.2,0-0.3c0-0.5,0-0.5,0.5-0.5c1.4,0,2.9,0,4.3,0c0.5,0,0.5,0,0.5,0.5c0,2.3,0,4.5,0,6.8
		c0,2.7,0,5.5,0,8.2C212.8,174.9,212.7,175.1,212.9,175.4z"/>
	<path class="st1" d="M115.8,180.9c1.1,0.9,2.1,1.6,3.2,2.5c0.2,0.2,0.3,0.3,0.1,0.6c-0.5,0.9-1.3,1.6-2,2.1
		c-2.3,1.6-4.8,2.1-7.5,1.9c-1.1-0.1-2.1-0.3-3.2-0.8c-3.5-1.4-5.7-4.1-6.3-7.8c-0.4-2.6-0.2-5.2,1-7.5c1.8-3.7,4.8-5.5,8.8-5.6
		c1.1,0,2.1,0.1,3.2,0.4c3.2,0.9,5.3,3,6.2,6.1c0.5,1.6,0.6,3.3,0.6,5.1c0,0.8,0,0.8-0.8,0.8c-4.3,0-8.6,0-12.9,0
		c-0.2,0-0.3,0-0.5,0c-0.3,0-0.4,0.1-0.4,0.4c0.2,1.6,1.1,2.8,2.5,3.7c2.4,1.3,5.5,0.8,7.4-1.3C115.5,181.3,115.6,181.1,115.8,180.9
		z M109.9,175.1c1.2,0,2.3,0,3.4,0c1.3,0,1.3,0,0.9-1.3c-0.6-1.9-2.5-3.1-4.6-2.9c-2.4,0.2-3.7,1.8-4,3.8c-0.1,0.4,0,0.4,0.4,0.4
		C107.4,175.1,108.6,175.1,109.9,175.1z"/>
	<path class="st1" d="M180.7,186.4c-3,2.7-7.8,1.8-10,0.2c-2.1-1.6-3-3.8-2.7-6.3s1.7-4.2,4-5.2c2.7-1.1,5.4-1.1,8.1,0.2
		c0.1,0,0.1,0,0.3,0.1c0-0.6,0.1-1.3-0.1-1.9c-0.3-1.3-1.4-2.1-3-2.3c-1.6-0.1-3.2,0.2-4.7,0.8c-0.1,0.1-0.3,0.1-0.4,0.2
		c-0.3,0.1-0.6,0.4-1,0.3c-0.3-0.1-0.4-0.5-0.6-0.9c-0.4-0.8-0.9-1.5-1.3-2.4c-0.2-0.3-0.1-0.5,0.2-0.6c1.6-1,3.4-1.6,5.4-1.9
		c2-0.3,4-0.3,6,0.2c2.8,0.8,4.3,2.7,4.8,5.5c0.1,0.8,0.2,1.5,0.2,2.3c0,4.1,0,8.2,0,12.4c0,0.1,0,0.2,0,0.3c0,0.2-0.1,0.3-0.3,0.3
		c-1.4,0-2.8,0-4.2,0c-0.2,0-0.3-0.1-0.4-0.3C180.9,187,180.9,186.7,180.7,186.4z M177,183.9c0.9,0,1.7-0.2,2.5-0.6
		c1.5-1.1,1.5-3.2,0-4.3c-1.3-1-3.7-1-4.9,0c-1.5,1.1-1.5,3.3,0.1,4.4C175.3,183.7,176.1,183.9,177,183.9z"/>
	<path class="st1" d="M160.6,106.8c-0.1,0.3-0.3,0.3-0.5,0.4c-5.1,2.9-10.2,5.8-15.1,8.8c-0.5,0.3-0.8,0.3-1.3,0
		c-5.1-2.9-10.2-5.8-15.1-8.8c-0.1-0.1-0.4-0.1-0.5-0.4c0.1-0.3,0.4-0.3,0.6-0.4c5-2.7,9.9-5.5,14.9-8.3c0.5-0.3,1-0.3,1.5,0
		c5,2.8,9.9,5.5,14.9,8.1C160.1,106.4,160.3,106.4,160.6,106.8z"/>
	<path class="st1" d="M126.8,108.9c0.3,0,0.4,0.1,0.6,0.3c5.1,2.9,10,5.8,15.1,8.6c0.4,0.3,0.6,0.5,0.6,0.9c0,5.5,0,10.8,0,16.3
		c0,0.1,0,0.3,0,0.4c-0.3,0.1-0.4,0-0.6-0.1c-5.1-2.8-10.2-5.6-15.3-8.4c-0.4-0.3-0.5-0.5-0.5-0.9c0-5.5,0-11.1,0-16.5
		C126.8,109.3,126.6,109.1,126.8,108.9z"/>
	<path class="st1" d="M161.9,108.9c0,0.3,0,0.5,0,0.6c0,5.3,0,10.8,0,16.1c0,0.5-0.1,0.9-0.6,1.1c-5,2.7-10,5.5-15,8.3
		c-0.3,0.1-0.4,0.3-0.6,0.3c-0.3-0.1-0.1-0.4-0.1-0.5c0-5.3,0-10.8,0-16.1c0-0.4,0.1-0.6,0.5-0.9c5.1-2.9,10.3-6,15.4-8.9
		C161.4,108.9,161.5,108.9,161.9,108.9z"/>
	<path class="st1" d="M203.8,173.3c-0.8-0.6-1.5-1.2-2.4-1.5c-1.2-0.4-2.5-0.5-3.7-0.3c-1.9,0.4-3.2,1.6-4,3.4
		c-0.5,1.4-0.6,2.8-0.2,4.3c1,3.7,4.5,4.8,7.3,4c0.5-0.1,1.1-0.3,1.6-0.6c0.4-0.3,0.9-0.5,1.4-0.9c0.1,0.2,0.1,0.4,0.2,0.6
		c0.3,1.1,0.6,2.1,1.1,3.1c0.2,0.6,0.2,0.6-0.4,1.1c-1.2,0.8-2.4,1.3-3.8,1.5c-3.2,0.5-6.2,0-8.9-1.9c-1.5-1.1-2.6-2.5-3.2-4.1
		c-1.3-3.1-1.3-6.3,0.1-9.4c1.6-3.3,4.3-5.3,8-5.9c2.9-0.5,5.5,0,8,1.6c0.5,0.4,0.5,0.4,0.3,1.1
		C204.6,170.6,204.2,171.9,203.8,173.3z"/>
	<path class="st1" d="M173.8,101.9c0,10.4,0,20.7,0,31.1c-0.6-0.1-1.1-0.5-1.7-0.9c-2.5-1.4-5-2.9-7.5-4.3c-0.4-0.3-0.6-0.5-0.6-1
		c0-6.4,0-12.6,0-18.9c0-0.4,0.1-0.6,0.5-0.9c2.5-1.4,5-2.9,7.5-4.3C172.7,102.5,173.2,102.1,173.8,101.9z"/>
	<path class="st1" d="M114.7,133.2c0-10.4,0-20.8,0-31.1c0.4-0.1,0.6,0.1,0.9,0.3c2.5,1.5,5.2,3.1,7.8,4.4c0.3,0.1,0.4,0.3,0.6,0.4
		c0.4,0.1,0.5,0.5,0.5,0.9c0,0.1,0,0.3,0,0.4c0,6.1,0,12.1,0,18.2c0,0.8-0.3,1.1-0.9,1.5c-2.8,1.5-5.6,3.2-8.3,4.8
		C115.2,133,115,133.1,114.7,133.2z"/>
	<path class="st1" d="M116,99.7c1.4-0.8,2.7-1.5,3.9-2.3c2.9-1.7,5.8-3.3,8.8-5c2.4-1.4,4.8-2.8,7.2-4.1c2-1.1,3.9-2.3,6-3.4
		c0.3-0.1,0.6-0.5,1-0.4c0.4,0.3,0.1,0.6,0.1,1c0,3.1,0,6.1,0,9.3c0,0.6-0.1,0.9-0.6,1.1c-4.4,2.4-8.9,4.8-13.2,7.2
		c-1,0.5-2,1-3.1,1.7c-0.5,0.3-0.9,0.3-1.3,0c-1.1-0.6-2.2-1.3-3.3-1.9c-1.7-1-3.3-1.9-5.1-2.9C116.4,100,116.1,100,116,99.7z"/>
	<path class="st1" d="M172.7,99.8c-0.8,0.5-1.5,0.9-2.2,1.3c-2.3,1.3-4.6,2.7-6.9,3.9c-0.4,0.3-0.8,0.3-1.3,0
		c-3.9-2.2-7.9-4.3-11.8-6.5c-1.5-0.9-3.2-1.8-4.7-2.7c-0.4-0.3-0.5-0.4-0.5-0.9c0-3.3,0-6.7,0-10c0-0.6,0.1-0.6,0.6-0.4
		c2.3,1.3,4.7,2.7,7,3.9c2.4,1.4,4.7,2.7,7.1,4.1c3.3,1.9,6.7,3.8,10,5.7C171,98.8,171.8,99.3,172.7,99.8z"/>
	<path class="st1" d="M143.2,150c-8.9-5.1-17.7-10-26.6-15c0.4-0.4,0.8-0.6,1.1-0.8c2.5-1.5,5.1-2.9,7.6-4.4
		c0.1-0.1,0.4-0.1,0.5-0.3c0.4-0.3,0.8-0.3,1.1,0c2.7,1.5,5.3,2.9,8.1,4.4c2.4,1.4,5,2.7,7.4,4.1c0.4,0.3,0.5,0.5,0.5,1
		c0,2.7,0,5.5,0,8.1C143.2,148.1,143.2,149,143.2,150z"/>
	<path class="st1" d="M172,135c-8.9,5.1-17.7,10-26.4,15c-0.3-0.1-0.3-0.4-0.3-0.5c0-3.4,0-6.9,0-10.4c0-0.5,0.1-0.8,0.6-1
		c4.3-2.4,8.8-4.7,13.1-7.1c0.8-0.4,1.5-0.9,2.3-1.3c0.4-0.3,0.8-0.3,1.1,0c2.4,1.4,5,2.8,7.4,4.3C170.6,134.1,171.3,134.5,172,135z
		"/>
</g>
</svg>
