<?xml version="1.0" encoding="utf-8"?>
<!-- Generator: Adobe Illustrator 19.2.1, SVG Export Plug-In . SVG Version: 6.00 Build 0)  -->
<svg version="1.1" id="Calque_1" xmlns="http://www.w3.org/2000/svg" xmlns:xlink="http://www.w3.org/1999/xlink" x="0px" y="0px"
	 viewBox="0 0 283.5 283.5" style="enable-background:new 0 0 283.5 283.5;" xml:space="preserve">
<style type="text/css">
	.st0{fill:none;stroke:#A4C3E0;stroke-width:8;stroke-miterlimit:10;}
	.st1{fill:#A3C2DF;}
</style>
<circle class="st0" cx="142.4" cy="143.4" r="131"/>
<g>
	<path class="st1" d="M134.1,175.1h-9.9v1.1c3.1,0,3.6,0.7,3.6,4.6v7.1c0,3.9-0.5,4.7-3.6,4.7c-2.4-0.3-4-1.6-6.2-4l-2.6-2.8
		c3.4-0.6,5.3-2.8,5.3-5.2c0-3-2.6-5.4-7.5-5.4h-9.8v1.1c3.1,0,3.6,0.7,3.6,4.6v7.1c0,3.9-0.5,4.7-3.6,4.7v1.1h11v-1.1
		c-3.1,0-3.6-0.7-3.6-4.7v-2h0.9l6.2,7.7h16.1c7.9,0,11.4-4.2,11.4-9.3C145.5,179.2,142.1,175.1,134.1,175.1z M110.9,184.1v-7.4h2.3
		c2.5,0,3.6,1.7,3.6,3.7c0,1.9-1.1,3.7-3.6,3.7H110.9z M134.3,191.8h-0.4c-2,0-2.3-0.5-2.3-3v-12c0,0,2.4,0,2.7,0
		c5.8,0,6.8,4.2,6.8,7.5C141.1,187.6,140.1,191.8,134.3,191.8z"/>
	<path class="st1" d="M72.6,186.1l3.8-11.3c1.1-3.3,0.6-4.2-2.9-4.2v-1.1h10.4v1.1c-3.5,0-4.3,0.8-5.7,4.9l-6.3,19h-0.7l-5.7-17.4
		l-5.8,17.4H59l-6.2-19c-1.3-4-2.2-4.9-5.4-4.9v-1.1h12.3v1.1c-3.3,0-4.2,0.8-3,4.2l3.7,11.3l5.6-16.6h1.1L72.6,186.1z"/>
	<path class="st1" d="M91.4,194.2c-6.1,0-11.1-4.5-11.1-10c0-5.4,5-9.9,11.1-9.9c6.1,0,11.1,4.5,11.1,9.9
		C102.5,189.8,97.5,194.2,91.4,194.2z M91.4,176.1c-5.1,0-6.9,4.6-6.9,8.2c0,3.7,1.8,8.2,6.9,8.2c5.2,0,6.9-4.5,6.9-8.2
		C98.4,180.7,96.6,176.1,91.4,176.1z"/>
	<path class="st1" d="M159.2,192.4v1.1h-12.7v-1.1c3.7,0,4.4-0.9,4.4-6.5v-8.9c0-5.5-0.7-6.4-4.4-6.4v-1.1H158
		c5.7,0,8.9,2.9,8.9,6.9c0,3.8-3.2,6.8-8.9,6.8h-3.2v2.7C154.8,191.5,155.5,192.4,159.2,192.4z M158,171.5h-3.2v9.6h3.2
		c3.1,0,4.5-2.2,4.5-4.8C162.5,173.7,161.1,171.5,158,171.5z"/>
	<path class="st1" d="M204.9,188.3l-0.3,1c-0.5,1.8-1.1,2.5-5,2.5h-0.8c-2.9,0-3.4-0.7-3.4-4.6v-2.6c4.3,0,4.7,0.4,4.7,3.3h1.1v-8.3
		h-1.1c0,2.9-0.3,3.3-4.7,3.3v-6.2h3c3.9,0,4.5,0.7,5,2.5l0.3,1.1h0.9l-0.4-5.2H188v1.1c3.1,0,3.6,0.7,3.6,4.6v7.1
		c0,3.6-0.4,4.5-2.9,4.6c-2.3-0.4-3.9-1.6-6.1-4l-2.6-2.8c3.4-0.6,5.3-2.8,5.3-5.2c0-3-2.6-5.4-7.5-5.4h-9.8v1.1
		c3.1,0,3.6,0.7,3.6,4.6v7.1c0,3.9-0.5,4.7-3.6,4.7v1.1h11v-1.1c-3.1,0-3.6-0.7-3.6-4.7v-2h0.9l6.2,7.7h22.8l0.3-5.2H204.9z
		 M175.5,184.1v-7.4h2.3c2.5,0,3.6,1.7,3.6,3.7c0,1.9-1.1,3.7-3.6,3.7H175.5z"/>
	<path class="st1" d="M216.2,194.2c-2.2,0-4.2-1.2-5-1.9c-0.3,0.3-0.8,1.1-0.9,1.9h-1.1v-7.6h1.1c0.4,3.7,3,5.8,6.3,5.8
		c1.8,0,3.2-1,3.2-2.7c0-1.4-1.3-2.6-3.5-3.6l-3.2-1.5c-2.2-1.1-3.9-2.9-3.9-5.3c0-2.7,2.5-4.9,5.9-4.9c1.8,0,3.4,0.7,4.3,1.4
		c0.3-0.2,0.6-0.8,0.7-1.5h1.1v6.5h-1.2c-0.4-2.6-1.8-4.8-4.8-4.8c-1.6,0-3,0.9-3,2.3c0,1.4,1.2,2.2,3.8,3.4l3,1.5
		c2.7,1.3,3.7,3.3,3.7,5C222.9,191.8,219.9,194.2,216.2,194.2z"/>
	<path class="st1" d="M233.2,194.2c-2.2,0-4.2-1.2-5-1.9c-0.3,0.3-0.8,1.1-0.9,1.9h-1.1v-7.6h1.1c0.4,3.7,3,5.8,6.3,5.8
		c1.8,0,3.2-1,3.2-2.7c0-1.4-1.3-2.6-3.5-3.6l-3.2-1.5c-2.2-1.1-3.9-2.9-3.9-5.3c0-2.7,2.5-4.9,5.9-4.9c1.8,0,3.4,0.7,4.3,1.4
		c0.3-0.2,0.6-0.8,0.7-1.5h1.1v6.5h-1.2c-0.4-2.6-1.8-4.8-4.8-4.8c-1.6,0-3,0.9-3,2.3c0,1.4,1.2,2.2,3.8,3.4l3,1.5
		c2.7,1.3,3.7,3.3,3.7,5C240,191.8,237,194.2,233.2,194.2z"/>
	<g>
		<path class="st1" d="M107.7,116.7c0,14.2,8.2,26.4,20.2,32.2l-17.1-46.8C108.8,106.6,107.7,111.5,107.7,116.7z"/>
		<path class="st1" d="M167.7,114.9c0-4.4-1.6-7.5-3-9.9c-1.8-3-3.5-5.4-3.5-8.4c0-3.3,2.5-6.4,6-6.4c0.2,0,0.3,0,0.5,0
			c-6.4-5.8-14.9-9.4-24.2-9.4c-12.5,0-23.5,6.4-29.9,16.1c0.8,0,1.6,0,2.3,0c3.7,0,9.5-0.5,9.5-0.5c1.9-0.1,2.2,2.7,0.2,3
			c0,0-1.9,0.2-4.1,0.3l13,38.8l7.8-23.5l-5.6-15.3c-1.9-0.1-3.8-0.3-3.8-0.3c-1.9-0.1-1.7-3.1,0.2-3c0,0,5.9,0.5,9.4,0.5
			c3.7,0,9.5-0.5,9.5-0.5c1.9-0.1,2.2,2.7,0.2,3c0,0-1.9,0.2-4.1,0.3l12.9,38.5l3.6-11.9C166.5,121.5,167.7,118,167.7,114.9z"/>
		<path class="st1" d="M144.2,119.8l-10.7,31.2c3.2,0.9,6.6,1.5,10.1,1.5c4.2,0,8.2-0.7,11.9-2c-0.1-0.2-0.2-0.3-0.3-0.5
			L144.2,119.8z"/>
		<path class="st1" d="M174.9,99.5c0.2,1.1,0.2,2.4,0.2,3.7c0,3.6-0.7,7.7-2.7,12.8l-10.9,31.6c10.6-6.2,17.8-17.7,17.8-31
			C179.3,110.5,177.7,104.6,174.9,99.5z"/>
		<path class="st1" d="M143.5,74.9c-23,0-41.7,18.7-41.7,41.7c0,23,18.7,41.7,41.7,41.7c23,0,41.7-18.7,41.7-41.7
			C185.3,93.7,166.5,74.9,143.5,74.9z M143.5,156.5c-22,0-39.8-17.9-39.8-39.8c0-22,17.9-39.8,39.8-39.8c22,0,39.8,17.9,39.8,39.8
			C183.4,138.7,165.5,156.5,143.5,156.5z"/>
	</g>
</g>
</svg>
